<svg width="37" height="35" viewBox="0 0 37 35" fill="none" xmlns="http://www.w3.org/2000/svg">
<g id="Group 87">
<path id="Vector" d="M7.62289 34.4539C7.16984 32.7437 6.7168 31.025 6.26375 29.3149C5.32281 25.7564 4.39349 22.1893 3.46416 18.6309C3.46416 18.5877 3.42931 18.5445 3.40608 18.4668H1.68683V15.6943H34.9334V18.4668H33.2026C32.796 20.0301 32.3894 21.5588 31.9944 23.0876C31.0186 26.8274 30.0429 30.5672 29.0671 34.2984C29.0554 34.3502 29.0322 34.4107 29.009 34.4625H7.62289V34.4539Z" fill="url(#paint0_linear_322_663)"/>
<path id="Vector_2" d="M13.5129 14.4077C13.2458 12.7753 13.1993 11.1861 13.3503 9.59687C13.5362 7.61037 13.9776 5.65841 14.6862 3.741C14.9185 3.12778 15.1741 2.51455 15.4297 1.90996C15.4645 1.83223 15.5923 1.78041 15.662 1.70268C15.8479 1.51266 16.0802 1.33128 16.1731 1.11536C16.2661 0.908073 16.1847 0.674875 16.208 0.450313C16.2312 0.191204 16.4055 0.0184642 16.754 0.00119023C17.0908 -0.0160837 17.2651 0.156656 17.3348 0.389854C17.358 0.45895 17.3813 0.528046 17.3696 0.588505C17.3116 0.959895 17.3116 1.40038 17.6833 1.59903C18.5313 2.03952 18.2641 2.81685 18.7985 3.36098C18.996 3.27461 19.2399 3.20551 19.4258 3.08459C19.5419 3.00686 19.6465 2.85139 19.6233 2.74775C19.5652 2.44546 19.449 2.16043 19.3561 1.86678C19.2864 1.63358 19.3328 1.41765 19.6813 1.3572C20.0298 1.30537 20.1344 1.50402 20.2157 1.71995C20.8778 3.67191 21.389 5.6325 21.6329 7.63628C21.7723 8.81955 21.8304 10.0114 21.9117 11.1947C21.9117 11.307 21.9466 11.4366 21.8769 11.5229C21.7955 11.6266 21.6213 11.7475 21.4819 11.7475C21.3541 11.7475 21.1566 11.6266 21.0986 11.5316C21.0172 11.4106 21.0289 11.2465 21.0289 11.0997C21.0172 9.07865 20.7268 7.07488 20.2738 5.07973C20.2505 4.99336 20.2157 4.90699 20.1808 4.77744C19.995 4.85517 19.8323 4.93291 19.6697 4.98473C19.4025 5.0711 19.3445 5.20065 19.3909 5.40794C19.6465 6.62575 19.9369 7.84357 20.1228 9.06138C20.3667 10.5988 20.3435 12.1534 20.1344 13.6994C20.0414 14.4163 20.0182 14.4163 19.054 14.4163H14.0241C13.8614 14.4163 13.6988 14.4163 13.4897 14.4163L13.5129 14.4077Z" fill="url(#paint1_linear_322_663)"/>
<path id="Vector_3" d="M30.1827 14.4077C30.4731 14.0364 30.6938 13.7341 30.961 13.3972C30.3685 13.1467 29.7993 12.8963 29.1836 12.6285C29.265 12.5162 29.3347 12.4126 29.4392 12.2658C30.0433 12.5162 30.6241 12.7667 31.2398 13.0258C31.507 12.6803 31.7625 12.3608 32.0297 12.0067C31.4256 11.7476 30.8564 11.4971 30.2407 11.2293C30.3337 11.1084 30.415 11.0048 30.5079 10.8752C31.112 11.1343 31.6928 11.3762 32.3085 11.6353C32.5641 11.2984 32.8196 10.9789 33.0984 10.6161C32.506 10.357 31.9251 10.1065 31.3211 9.83878C31.414 9.71786 31.4953 9.61422 31.5883 9.48466C32.1807 9.73514 32.7499 9.97697 33.3772 10.2447C33.6444 9.91651 33.9 9.58831 34.1788 9.22555C33.5863 8.96644 33.0055 8.71597 32.4014 8.45686C32.4944 8.33595 32.5641 8.2323 32.657 8.09411C33.2611 8.35322 33.8535 8.59506 34.4576 8.85416C34.748 8.48277 35.0268 8.12002 35.3056 7.7659C34.7944 7.92137 34.4576 7.67954 34.0858 7.52407C33.4005 7.23041 32.7151 6.95403 32.0529 6.6431C31.809 6.53082 31.6347 6.34944 31.3792 6.16806C31.3559 6.19397 31.263 6.28034 31.1817 6.37535C29.2069 8.90599 27.2437 11.4366 25.2805 13.9759C25.1992 14.0709 25.2108 14.2091 25.1643 14.3818H21.7026C21.7955 14.2609 21.8652 14.1573 21.9465 14.0536C24.1537 11.2121 26.3608 8.36186 28.568 5.52029C29.1953 4.70841 29.9503 4.55295 31.0539 5.02798C32.5641 5.67576 34.0858 6.32353 35.596 6.97994C36.6299 7.42906 36.839 8.00774 36.2465 8.78507C34.8525 10.5816 33.4469 12.3694 32.0645 14.1745C31.9251 14.3559 31.7741 14.425 31.4953 14.4164C31.0771 14.3991 30.6589 14.4164 30.1478 14.4164L30.1827 14.4077Z" fill="url(#paint2_linear_322_663)"/>
<path id="Vector_4" d="M11.526 14.4077C9.7254 14.4077 7.94807 14.4077 6.15912 14.4077C6.04295 14.4077 5.88032 14.3213 5.82224 14.2436C3.92874 11.808 2.04686 9.38962 0.176591 6.954C-0.137056 6.53942 -0.0208903 6.23713 0.536705 5.99529C1.39633 5.6239 2.25596 5.25251 3.1272 4.88976C3.68479 4.65656 4.09137 4.72565 4.3934 5.12296C6.7748 8.18045 9.13296 11.2379 11.5027 14.2954C11.5144 14.3127 11.5027 14.3386 11.5144 14.4077H11.526ZM4.6025 5.88301C3.34791 6.4185 2.15141 6.93672 0.931668 7.46358C1.11753 7.69678 1.25693 7.88679 1.43118 8.11135C2.66253 7.58449 3.87066 7.06628 5.10201 6.53942C4.92776 6.31486 4.77675 6.11621 4.59088 5.89165L4.6025 5.88301Z" fill="url(#paint3_linear_322_663)"/>
<path id="Vector_5" d="M30.0318 14.3645C29.2419 14.5027 28.661 14.3299 28.1151 13.9931C28.1964 13.8894 28.2777 13.7858 28.3706 13.6562C28.9166 13.8894 29.4277 14.114 30.0318 14.3645Z" fill="url(#paint4_linear_322_663)"/>
</g>
<defs>
<linearGradient id="paint0_linear_322_663" x1="18.3101" y1="15.6943" x2="18.3101" y2="34.4625" gradientUnits="userSpaceOnUse">
<stop stop-color="#8236AF"/>
<stop offset="1" stop-color="#361039"/>
</linearGradient>
<linearGradient id="paint1_linear_322_663" x1="17.5927" y1="0" x2="17.5927" y2="14.4163" gradientUnits="userSpaceOnUse">
<stop stop-color="#8236AF"/>
<stop offset="1" stop-color="#361039"/>
</linearGradient>
<linearGradient id="paint2_linear_322_663" x1="29.1382" y1="4.76093" x2="29.1382" y2="14.4171" gradientUnits="userSpaceOnUse">
<stop stop-color="#8236AF"/>
<stop offset="1" stop-color="#361039"/>
</linearGradient>
<linearGradient id="paint3_linear_322_663" x1="5.76573" y1="4.75629" x2="5.76573" y2="14.4077" gradientUnits="userSpaceOnUse">
<stop stop-color="#8236AF"/>
<stop offset="1" stop-color="#361039"/>
</linearGradient>
<linearGradient id="paint4_linear_322_663" x1="29.0734" y1="13.6562" x2="29.0734" y2="14.4123" gradientUnits="userSpaceOnUse">
<stop stop-color="#8236AF"/>
<stop offset="1" stop-color="#361039"/>
</linearGradient>
</defs>
</svg>
