<svg width="53" height="43" viewBox="0 0 53 43" fill="none" xmlns="http://www.w3.org/2000/svg">
<path d="M0 22.1412C0.857992 21.1192 1.67906 20.0677 2.59135 19.0939C2.91717 18.7477 3.44066 18.4454 3.91201 18.3783C8.27148 17.7571 12.6418 17.2072 17.0013 16.586C17.3575 16.5356 17.8745 16.1516 17.9483 15.841C19.0322 11.2994 23.383 8.1199 28.0227 8.06114C33.2618 7.99398 37.743 11.0665 39.3091 15.7822C40.7557 20.137 39.1505 24.8129 35.3319 27.3775C31.4611 29.9777 25.9917 29.8182 22.2578 26.9976C20.4007 25.5957 19.5991 24.5589 18.2394 21.7614C17.2055 22.456 16.1845 23.1402 15.1159 23.8601C14.0993 23.1171 13.098 22.3826 12.001 21.5809C11.18 22.5987 10.3676 23.604 9.48353 24.7016C8.41484 23.9104 7.37221 23.1381 6.24705 22.307C5.47812 23.2661 4.73959 24.1895 3.98369 25.1298C2.61525 24.1749 1.30762 23.264 0.00217213 22.3532C0.00217213 22.2839 0.00217213 22.2126 0.00217213 22.1433L0 22.1412ZM32.9816 18.4266C32.9599 17.4192 31.9803 16.4937 30.9398 16.4958C29.8538 16.4979 28.8589 17.5052 28.9132 18.542C28.9675 19.5535 29.9732 20.4539 31.0072 20.4161C32.065 20.3783 33.0034 19.4318 32.9795 18.4245L32.9816 18.4266Z" fill="url(#paint0_linear_86_540)"/>
<path d="M53.0009 38.0912C51.8822 39.0083 50.7549 39.9128 49.6493 40.8446C48.8348 41.5288 48.0506 42.2445 47.1883 43.0021C44.4666 40.1206 41.7884 37.2895 39.0862 34.4289C33.5972 37.6651 27.852 38.4332 21.7895 36.4395C17.795 35.1257 13.6267 31.9063 12.0888 28.9451C13.3552 28.7898 14.5824 28.5925 15.8162 28.5274C16.1072 28.5127 16.4678 28.8989 16.7198 29.1696C19.12 31.7342 22.0307 33.4216 25.5452 34.1729C35.487 36.2989 45.1921 28.3344 44.5947 18.5083C44.0669 9.85122 36.5991 3.16061 27.65 3.5006C22.1849 3.70837 17.9318 6.18272 14.9473 10.6088C14.4868 11.2909 14.0242 11.6687 13.1662 11.7107C12.306 11.7505 11.4545 11.9604 10.5987 12.0863C10.4988 12.101 10.3902 12.0569 10.1426 12.0192C12.7361 5.98124 17.1977 1.98325 23.7184 0.570829C31.8313 -1.18577 38.8082 1.1018 43.7954 7.57205C49.0476 14.3844 48.9325 21.6752 44.6078 29.1256C47.362 31.9987 50.1815 34.9389 53.0009 37.8813V38.0912Z" fill="url(#paint1_linear_86_540)"/>
<defs>
<linearGradient id="paint0_linear_86_540" x1="19.9176" y1="8.06006" x2="19.9176" y2="29.2254" gradientUnits="userSpaceOnUse">
<stop stop-color="#8236AF"/>
<stop offset="1" stop-color="#361039"/>
</linearGradient>
<linearGradient id="paint1_linear_86_540" x1="31.5717" y1="0" x2="31.5717" y2="43.0021" gradientUnits="userSpaceOnUse">
<stop stop-color="#8236AF"/>
<stop offset="1" stop-color="#361039"/>
</linearGradient>
</defs>
</svg>
