<svg width="55" height="37" viewBox="0 0 55 37" fill="none" xmlns="http://www.w3.org/2000/svg">
<g id="Layer_1" clipPath="url(#clip0_86_604)">
<path id="Vector" d="M1.95119 20.371C0.277144 20.5292 -0.100776 19.5887 0.0195986 18.1879C0.0755868 17.5384 0.0755868 16.8747 0.0195986 16.2223C-0.0951772 14.8469 0.338731 14.0109 1.8952 14.1888C1.95959 13.9657 2.04357 13.7963 2.05477 13.624C2.25913 10.4609 3.17453 9.57409 6.26508 9.56844C8.40103 9.56561 10.537 9.6108 12.6701 9.54867C13.6079 9.52043 14.2238 9.68705 14.0894 10.9212C19.4111 10.0005 24.2597 8.35403 28.3048 4.79269C28.54 4.58653 28.6212 4.19114 28.8675 4.01886C29.3518 3.68278 29.9761 3.13771 30.4044 3.24503C30.8523 3.35799 31.4178 4.12053 31.443 4.62324C31.5549 6.95887 31.4514 9.30579 31.5409 11.6442C31.5605 12.1724 31.9245 12.8643 32.35 13.1665C35.3369 15.2931 35.3258 19.1623 32.3276 21.3087C31.9049 21.6109 31.5605 22.3169 31.5382 22.8507C31.4486 24.9999 31.4906 27.1576 31.5046 29.3125C31.5102 30.2134 31.4038 31.1878 30.382 31.2471C29.8529 31.2782 29.2538 30.5862 28.7303 30.1626C28.1201 29.6684 27.5994 29.0527 26.9695 28.5923C23.1735 25.8161 18.854 24.3786 14.2014 23.5596C14.1006 24.0002 14.011 24.3899 13.9103 24.839C12.9977 24.8813 12.1354 24.9209 11.1612 24.966C11.6315 28.7816 12.0879 32.5152 12.5554 36.3137C11.57 36.5538 10.7245 36.76 9.72515 37.0028C9.53199 36.4606 9.32483 35.9607 9.17087 35.4439C8.22187 32.2666 7.30646 29.0781 6.32107 25.9122C6.1839 25.4688 5.77238 24.8728 5.39166 24.7881C2.80781 24.2063 2.22553 23.5935 2.06037 20.9783C2.05197 20.8399 2.00998 20.7043 1.94559 20.371H1.95119ZM5.50924 21.4499H10.6154V13.206H5.50924V21.4499Z" fill="url(#paint0_linear_86_604)"/>
<path id="Vector_2" d="M45.3112 9.66445V6.0777C44.4154 6.54935 43.6847 6.76964 43.1668 7.23281C41.476 8.74941 39.8635 10.3536 38.1671 11.9747C37.5764 11.294 36.9102 10.5258 36.1207 9.61927C38.0831 7.61125 40.1071 5.366 42.3466 3.36081C42.9401 2.82986 44.1886 3.0445 45.2776 2.90047V0H55.0027C55.0027 2.10686 55.0027 4.23914 55.0027 6.37142C55.0027 8.56678 53.9156 9.66445 51.7414 9.66445H45.314H45.3112ZM51.5707 6.20762V3.38058H48.7881V6.20762H51.5707Z" fill="url(#paint1_linear_86_604)"/>
<path id="Vector_3" d="M54.9973 34.4356H45.3981V31.651C45.1853 31.5041 45.1041 31.3996 45.0426 31.4109C42.999 31.7922 41.7169 30.6653 40.4319 29.2645C38.9958 27.6971 37.3498 26.3245 35.7849 24.8587C36.8151 23.8307 37.5317 23.1134 38.2624 22.3819C40.7483 24.0086 42.036 27.1435 45.3197 28.3156V24.7542C48.4158 24.7542 51.3692 24.7345 54.3226 24.7909C54.5522 24.7966 54.9609 25.3078 54.9665 25.5902C55.0141 28.4822 54.9945 31.3742 54.9945 34.4356H54.9973ZM51.4952 31.0438C51.8143 28.0981 52.1643 27.7394 48.7966 28.3353V31.0438H51.4952Z" fill="url(#paint2_linear_86_604)"/>
<path id="Vector_4" d="M37.1677 15.5784H45.328V12.4124H54.9076V22.0345H45.3616V18.9448H37.1677V15.5784ZM48.7685 15.7563V18.62H51.5567V15.7563H48.7685Z" fill="url(#paint3_linear_86_604)"/>
</g>
<defs>
<linearGradient id="paint0_linear_86_604" x1="17.2911" y1="3.23126" x2="17.2911" y2="37.0028" gradientUnits="userSpaceOnUse">
<stop stop-color="#8236AF"/>
<stop offset="1" stop-color="#361749"/>
</linearGradient>
<linearGradient id="paint1_linear_86_604" x1="45.5617" y1="0" x2="45.5617" y2="11.9747" gradientUnits="userSpaceOnUse">
<stop stop-color="#8236AF"/>
<stop offset="1" stop-color="#361749"/>
</linearGradient>
<linearGradient id="paint2_linear_86_604" x1="45.3917" y1="22.3819" x2="45.3917" y2="34.4356" gradientUnits="userSpaceOnUse">
<stop stop-color="#8236AF"/>
<stop offset="1" stop-color="#361749"/>
</linearGradient>
<linearGradient id="paint3_linear_86_604" x1="46.0377" y1="12.4124" x2="46.0377" y2="22.0345" gradientUnits="userSpaceOnUse">
<stop stop-color="#8236AF"/>
<stop offset="1" stop-color="#361749"/>
</linearGradient>
<clipPath id="clip0_86_604">
<rect width="55" height="37" fill="white"/>
</clipPath>
</defs>
</svg>
