<svg width="52" height="44" viewBox="0 0 52 44" fill="none" xmlns="http://www.w3.org/2000/svg">
<g id="Group">
<path id="Vector" d="M38.4196 35.263V28.0718H49.5321C49.5321 25.8515 49.5321 23.7422 49.5321 21.6206C49.5321 15.9959 49.5321 10.3589 49.5321 4.73413C49.5321 3.25394 49.1621 2.90856 47.6574 2.90856C33.2518 2.90856 18.8461 2.90856 4.42811 2.90856C3.13308 2.90856 2.71372 3.25394 2.71372 4.40109C2.71372 12.1227 2.71372 19.8567 2.71372 27.5784C2.71372 27.6894 2.75072 27.7881 2.78772 27.9978C3.24406 28.0348 3.7004 28.0841 4.24308 28.1335V35.1027C2.19569 35.3247 0.555335 34.0049 0.555335 32.019C0.530668 22.6814 0.518334 13.3562 0.555335 4.0187C0.555335 2.1438 1.88737 0.873298 3.76208 0.860963C9.26288 0.823958 14.7513 0.836294 20.2521 0.836294C29.2063 0.836294 38.1729 0.836294 47.1271 0.836294C47.4601 0.836294 47.7931 0.836294 48.1261 0.848629C50.4572 0.897969 51.6782 2.11913 51.6782 4.47509C51.6782 8.61963 51.6782 12.7642 51.6782 16.9087C51.6782 21.7193 51.6782 26.5423 51.6782 31.3529C51.6782 33.9679 50.2352 35.3001 47.6204 35.2507C44.5864 35.2014 41.5523 35.2507 38.4319 35.2507L38.4196 35.263Z" fill="url(#paint0_linear_86_826)"/>
<path id="Vector_2" d="M20.7331 43.5521C20.9181 42.1213 21.1031 40.7398 21.3004 39.2349H34.9537V14.7624H15.5406V18.4506H13.3452C13.3452 16.958 13.2465 15.4038 13.3822 13.862C13.4685 12.8752 14.2702 12.5051 15.2569 12.5051C17.7607 12.5175 20.252 12.5051 22.7558 12.5051C26.8629 12.5051 30.9576 12.5051 35.0647 12.5051C36.6804 12.5051 37.1861 13.0109 37.1861 14.6514C37.1861 23.5325 37.1861 32.4137 37.1861 41.2948C37.1861 42.9847 36.6064 43.5521 34.892 43.5521C30.1189 43.5521 25.3458 43.5521 20.7331 43.5521ZM25.4938 39.6049C25.0005 40.2834 24.4948 40.6657 24.5195 41.0358C24.5441 41.4182 25.0745 41.7636 25.3705 42.1213C25.7282 41.7759 26.2832 41.4675 26.3695 41.0481C26.4435 40.7398 25.9255 40.2957 25.4815 39.6049H25.4938Z" fill="url(#paint1_linear_86_826)"/>
<path id="Vector_3" d="M19.9437 31.7106C19.9437 34.8067 19.9437 37.9027 19.9437 40.9988C19.9437 42.7257 19.1297 43.5398 17.4276 43.5521C14.3319 43.5521 11.2361 43.5521 8.14041 43.5521C6.3397 43.5521 5.53803 42.7997 5.53803 40.9741C5.51336 34.708 5.51336 28.4295 5.53803 22.1634C5.53803 20.4982 6.3767 19.7457 8.06641 19.7334C11.1991 19.7334 14.3319 19.7334 17.477 19.7334C19.1667 19.7334 19.9437 20.5105 19.956 22.2004C19.956 25.3704 19.956 28.5405 19.956 31.7229L19.9437 31.7106ZM7.73342 21.929V38.6305H17.6867V21.929H7.73342ZM14.0112 41.1098C13.4192 40.6411 13.0492 40.1107 12.6915 40.1107C12.3462 40.1107 11.7048 40.7274 11.7418 40.9865C11.8035 41.3935 12.2722 41.9486 12.6669 42.0473C12.9505 42.1213 13.4069 41.5539 14.0112 41.0975V41.1098Z" fill="url(#paint2_linear_86_826)"/>
<path id="Vector_4" d="M43.2051 42.9107H38.3703C38.3703 41.9239 38.3579 40.9741 38.3826 40.012C38.3826 39.827 38.5676 39.6543 38.6786 39.4693C38.8513 39.5679 39.135 39.6419 39.1843 39.7776C39.69 41.3935 41.1207 41.6649 42.465 42.1089C42.7734 42.2076 43.0447 42.442 43.3407 42.6147C43.2914 42.7133 43.2544 42.7997 43.2051 42.8984V42.9107Z" fill="url(#paint3_linear_86_826)"/>
</g>
<defs>
<linearGradient id="paint0_linear_86_826" x1="0.518334" y1="18.0558" x2="51.6782" y2="18.0558" gradientUnits="userSpaceOnUse">
<stop stop-color="#8E4EB5"/>
<stop offset="1" stop-color="#37174A"/>
</linearGradient>
<linearGradient id="paint1_linear_86_826" x1="13.3082" y1="28.0225" x2="37.1861" y2="28.0225" gradientUnits="userSpaceOnUse">
<stop stop-color="#8E4EB5"/>
<stop offset="1" stop-color="#37174A"/>
</linearGradient>
<linearGradient id="paint2_linear_86_826" x1="5.51336" y1="31.6366" x2="19.9437" y2="31.6366" gradientUnits="userSpaceOnUse">
<stop stop-color="#8E4EB5"/>
<stop offset="1" stop-color="#37174A"/>
</linearGradient>
<linearGradient id="paint3_linear_86_826" x1="38.3703" y1="41.1961" x2="43.3407" y2="41.1961" gradientUnits="userSpaceOnUse">
<stop stop-color="#8E4EB5"/>
<stop offset="1" stop-color="#37174A"/>
</linearGradient>
</defs>
</svg>
