<svg width="49" height="45" viewBox="0 0 49 45" fill="none" xmlns="http://www.w3.org/2000/svg">
<g clipPath="url(#clip0_86_171)">
<path d="M2.75766e-05 6.77144C2.75766e-05 3.95236 1.55933 1.7039 4.22667 0.790282C4.8613 0.572944 5.56627 0.478105 6.23962 0.470992C8.29288 0.448863 10.3461 0.516831 12.3994 0.51367C19.1946 0.502605 25.9898 0.472573 32.7842 0.455976C36.1178 0.448073 39.4514 0.452815 42.7857 0.454395C46.2663 0.455976 48.9937 3.15335 48.9984 6.62523C49.0056 11.4984 48.9929 16.3715 48.989 21.2454C48.989 21.6667 48.989 22.0879 48.989 22.5091C48.9929 22.5091 48.9969 22.5091 49.0008 22.5091C49.0008 27.7774 49.0016 33.0457 49.0008 38.314C49.0008 41.0375 47.47 43.2749 44.9133 44.1893C44.3055 44.4066 43.6314 44.5157 42.9849 44.5291C41.3007 44.5655 39.6149 44.5109 37.9292 44.5125C34.2036 44.5173 30.4788 44.5386 26.7532 44.5449C23.0782 44.5512 19.4032 44.5504 15.729 44.5449C13.98 44.5425 12.2318 44.5141 10.4829 44.5133C9.07451 44.5133 7.66616 44.5457 6.2578 44.5449C3.16053 44.5425 0.746092 42.5833 0.122528 39.5572C0.0332211 39.1225 0.00635016 38.6681 0.00555983 38.2223C-0.00155307 29.2134 2.75766e-05 20.2046 2.75766e-05 11.1957M2.46109 12.6989C2.45319 12.8387 2.44133 12.9407 2.44133 13.0427C2.43738 15.5053 2.43027 17.9679 2.43106 20.4298C2.43264 26.3683 2.43817 32.3076 2.44133 38.246C2.44212 40.5182 4.01645 42.1036 6.27598 42.1036C11.9126 42.1036 17.5491 42.1036 23.1849 42.1036C24.896 42.1036 26.6078 42.1036 28.3189 42.1036C31.1632 42.1036 34.0068 42.1028 36.8512 42.1083C36.9579 42.1083 37.0638 42.1763 37.2084 42.2253C37.4376 42.0277 38.9724 42.042 39.204 42.2269C39.3755 42.1739 39.4877 42.1139 39.6023 42.1091C39.9255 42.0949 40.2504 42.1036 40.5744 42.1036C41.2983 42.1036 42.0231 42.106 42.747 42.1036C45.0034 42.0941 46.5564 40.5317 46.5564 38.2682C46.5571 29.8923 46.5571 21.5173 46.5579 13.1414C46.5579 13.0016 46.5579 12.8617 46.5579 12.6981H2.46109V12.6989ZM2.43738 10.2465H46.539C46.5469 10.1469 46.5587 10.071 46.5587 9.99438C46.5563 8.79625 46.5737 7.59733 46.5382 6.39999C46.5263 6.00167 46.4323 5.58596 46.2868 5.21372C45.7313 3.79193 44.3956 2.89965 42.8371 2.89728C38.1513 2.89017 33.4654 2.89254 28.7796 2.89254C21.549 2.89254 14.3183 2.89254 7.08764 2.89412C6.70591 2.89412 6.3234 2.88543 5.94167 2.90123C4.38395 2.96604 2.90367 4.10094 2.60967 5.62469C2.42711 6.56833 2.4769 7.5586 2.44054 8.52833C2.42 9.08946 2.43659 9.65296 2.43659 10.2465H2.43738Z" fill="url(#paint0_linear_86_171)"/>
<path d="M26.942 27.3821C26.9507 32.754 22.5929 37.1553 17.293 37.2019C11.8042 37.2509 7.42344 32.8543 7.36812 27.5426C7.31122 22.0909 11.5331 18.0524 16.2743 17.6525C22.3368 17.1411 26.9847 22.0072 26.9428 27.3821H26.942ZM17.3918 20.0598C13.5398 19.9579 10.1184 22.6592 9.81417 26.9261C9.52649 30.9623 12.5621 34.3994 16.5169 34.7361C20.5539 35.0791 24.1728 32.0356 24.492 28.0816C24.8429 23.7451 21.5046 20.1602 17.3918 20.0598Z" fill="url(#paint1_linear_86_171)"/>
<path d="M34.9267 33.5459C36.7176 33.5459 38.5084 33.5451 40.2985 33.5459C41.1173 33.5459 41.6389 34.0224 41.6405 34.7654C41.6421 35.4885 41.0904 35.9864 40.2843 35.9864C36.7033 35.9864 33.1216 35.988 29.5406 35.9848C28.5322 35.984 27.9055 35.1076 28.3006 34.2532C28.5282 33.7593 28.9337 33.5451 29.4743 33.5467C31.292 33.5514 33.1089 33.5483 34.9267 33.5483V33.5459Z" fill="url(#paint2_linear_86_171)"/>
<path d="M34.9299 18.8483C36.7603 18.8483 38.5907 18.8467 40.4211 18.8499C40.9751 18.8507 41.4153 19.1628 41.5694 19.6442C41.7401 20.1784 41.6002 20.7245 41.1672 21.0209C40.9798 21.1489 40.7364 21.2509 40.5136 21.2596C39.9777 21.2809 39.4387 21.2303 38.9013 21.2272C38.601 21.2256 38.3006 21.2785 38.0011 21.2738C37.4503 21.2651 36.8986 21.2098 36.3478 21.2129C34.0653 21.2256 31.7821 21.2596 29.4996 21.2714C28.5338 21.2762 27.9411 20.4361 28.2865 19.5865C28.4793 19.1107 28.9006 18.8483 29.4791 18.8483C31.296 18.8475 33.113 18.8483 34.9307 18.8483H34.9299Z" fill="url(#paint3_linear_86_171)"/>
<path d="M36.1202 26.1761C34.7253 26.1761 33.3303 26.1856 31.9362 26.173C30.8835 26.1635 30.3026 25.1748 30.8298 24.3078C31.0589 23.9308 31.4138 23.7475 31.854 23.7514C32.6807 23.7593 33.5066 23.7878 34.3333 23.7854C35.5409 23.7823 36.7485 23.757 37.9561 23.7483C38.7693 23.7427 39.5834 23.7412 40.3966 23.7538C41.1435 23.7657 41.6303 24.243 41.6398 24.9464C41.6493 25.6458 41.1356 26.1682 40.3832 26.1746C38.9622 26.188 37.5412 26.1785 36.1202 26.1785V26.1761Z" fill="url(#paint4_linear_86_171)"/>
<path d="M36.1153 31.0778C34.7204 31.0778 33.3247 31.0857 31.9298 31.0746C30.9008 31.0659 30.3041 30.0788 30.8115 29.2347C31.0912 28.7685 31.5409 28.6325 32.061 28.6333C34.5758 28.638 37.0906 28.6357 39.6054 28.6365C39.882 28.6365 40.1586 28.6278 40.4344 28.642C41.1631 28.6784 41.6547 29.1921 41.6373 29.886C41.6199 30.583 41.1125 31.0738 40.3807 31.0778C38.9589 31.0841 37.5371 31.0794 36.1153 31.0794V31.0778Z" fill="url(#paint5_linear_86_171)"/>
<path d="M7.30016 7.78777C6.89236 7.78777 6.48297 7.80358 6.07595 7.78382C5.37573 7.74984 4.89758 7.2306 4.91181 6.54697C4.92445 5.91155 5.44765 5.37729 6.10599 5.36543C6.93503 5.35042 7.76408 5.35595 8.59313 5.36622C9.2412 5.37413 9.76913 5.88231 9.79047 6.4956C9.81497 7.19898 9.3716 7.73482 8.68244 7.78224C8.22405 7.81385 7.76171 7.78856 7.30095 7.78777H7.30016Z" fill="url(#paint6_linear_86_171)"/>
<path d="M14.7103 5.36067C15.1181 5.36067 15.5267 5.35198 15.9337 5.36304C16.6252 5.38122 17.1342 5.89493 17.1389 6.56512C17.1445 7.25112 16.6679 7.77036 15.9637 7.78854C15.1228 7.80988 14.2796 7.80909 13.4386 7.78538C12.7368 7.76562 12.2374 7.22109 12.2603 6.55722C12.2832 5.89018 12.8072 5.37568 13.4861 5.36383C13.8939 5.35672 14.3017 5.36225 14.7095 5.36225V5.36067H14.7103Z" fill="url(#paint7_linear_86_171)"/>
<path d="M14.1183 27.4114C14.1183 26.2268 14.1246 25.0429 14.1152 23.8582C14.1112 23.3452 14.2582 22.9177 14.7332 22.6703C15.2082 22.4229 15.6642 22.4901 16.1076 22.7873C17.8755 23.9735 19.6498 25.1503 21.4201 26.3342C22.2626 26.8977 22.2657 27.9204 21.4241 28.4831C19.6648 29.6591 17.9032 30.832 16.1392 32.0016C15.4903 32.4316 14.8841 32.4205 14.4408 31.8949C14.2495 31.6673 14.1365 31.3077 14.1278 31.0043C14.093 29.8077 14.1136 28.6096 14.1136 27.4122H14.1175L14.1183 27.4114ZM18.6374 27.4083C17.9103 26.9254 17.2551 26.4915 16.5683 26.0347V28.7787C17.2749 28.3108 17.9269 27.8793 18.6374 27.4083Z" fill="url(#paint8_linear_86_171)"/>
</g>
<defs>
<linearGradient id="paint0_linear_86_171" x1="24.5005" y1="0.451538" x2="24.5005" y2="44.5494" gradientUnits="userSpaceOnUse">
<stop stop-color="#8236AF"/>
<stop offset="1" stop-color="#361749"/>
</linearGradient>
<linearGradient id="paint1_linear_86_171" x1="17.1553" y1="17.6155" x2="17.1553" y2="37.2023" gradientUnits="userSpaceOnUse">
<stop stop-color="#8236AF"/>
<stop offset="1" stop-color="#361749"/>
</linearGradient>
<linearGradient id="paint2_linear_86_171" x1="34.9107" y1="33.5455" x2="34.9107" y2="35.9868" gradientUnits="userSpaceOnUse">
<stop stop-color="#8236AF"/>
<stop offset="1" stop-color="#361749"/>
</linearGradient>
<linearGradient id="paint3_linear_86_171" x1="34.9137" y1="18.8479" x2="34.9137" y2="21.2741" gradientUnits="userSpaceOnUse">
<stop stop-color="#8236AF"/>
<stop offset="1" stop-color="#361749"/>
</linearGradient>
<linearGradient id="paint4_linear_86_171" x1="36.136" y1="23.7441" x2="36.136" y2="26.1818" gradientUnits="userSpaceOnUse">
<stop stop-color="#8236AF"/>
<stop offset="1" stop-color="#361749"/>
</linearGradient>
<linearGradient id="paint5_linear_86_171" x1="36.1326" y1="28.6333" x2="36.1326" y2="31.0811" gradientUnits="userSpaceOnUse">
<stop stop-color="#8236AF"/>
<stop offset="1" stop-color="#361749"/>
</linearGradient>
<linearGradient id="paint6_linear_86_171" x1="7.35147" y1="5.3562" x2="7.35147" y2="7.7981" gradientUnits="userSpaceOnUse">
<stop stop-color="#8236AF"/>
<stop offset="1" stop-color="#361749"/>
</linearGradient>
<linearGradient id="paint7_linear_86_171" x1="14.6993" y1="5.35742" x2="14.6993" y2="7.80388" gradientUnits="userSpaceOnUse">
<stop stop-color="#8236AF"/>
<stop offset="1" stop-color="#361749"/>
</linearGradient>
<linearGradient id="paint8_linear_86_171" x1="18.0806" y1="22.5188" x2="18.0806" y2="32.308" gradientUnits="userSpaceOnUse">
<stop stop-color="#8236AF"/>
<stop offset="1" stop-color="#361749"/>
</linearGradient>
<clipPath id="clip0_86_171">
<rect width="49" height="44.0968" fill="white" transform="translate(0 0.451172)"/>
</clipPath>
</defs>
</svg>
