<svg width="43" height="37" viewBox="0 0 43 37" fill="none" xmlns="http://www.w3.org/2000/svg">
<g clipPath="url(#clip0_86_195)">
<path d="M36.5091 0C38.9298 2.54508 41.009 4.73613 43 6.82883C37.2457 12.7962 31.4185 18.8462 25.5798 24.8883C25.3189 25.1558 24.9813 25.3918 24.6361 25.5176C21.5978 26.5994 18.548 27.6497 15.1952 28.8219C16.3461 25.3485 17.3703 22.2252 18.4291 19.1136C18.548 18.7636 18.8434 18.4567 19.1081 18.1814C24.8701 12.155 30.6359 6.14044 36.513 0.00393366L36.5091 0ZM24.5133 23.4603C29.0477 18.677 33.3634 14.1297 37.7943 9.45652C37.4413 9.08675 36.9733 8.59505 36.513 8.10727C32.0054 12.8237 27.636 17.3907 23.2666 21.9616C23.5082 22.2527 23.9187 22.7444 24.5133 23.4603ZM20.7922 19.5385C21.2142 19.9279 21.7091 20.3842 22.2538 20.8877C26.7268 16.2106 31.0656 11.679 35.4465 7.10025C35.0053 6.67935 34.5066 6.19945 33.9504 5.66447C29.5464 10.3101 25.2345 14.8535 20.7922 19.5385ZM35.3122 4.22868C36.7009 5.66054 37.94 6.93504 39.0871 8.11907C39.72 7.72177 40.284 7.36381 40.5909 7.17106C39.1753 5.56613 38.0014 4.23655 36.7662 2.83617C36.2713 3.31214 35.8685 3.69764 35.3122 4.23262V4.22868ZM19.814 21.2142C19.6298 21.2378 19.4495 21.2654 19.2654 21.289V24.8568C20.4048 24.7584 21.5441 24.664 22.8101 24.5578C21.6016 23.2125 20.7078 22.2134 19.8101 21.2182L19.814 21.2142Z" fill="url(#paint0_linear_86_195)"/>
<path d="M5.07529 35.3282H14.5008C14.5239 35.2259 14.5507 35.1236 14.5737 35.0214C14.1134 34.8719 13.6607 34.6791 13.1927 34.5808C9.38719 33.7705 5.56249 33.0467 1.78767 32.1144C1.06646 31.9374 0.0920669 31.013 0.0115066 30.3403C-0.138105 29.0776 1.01659 28.932 2.04469 28.936C5.49344 28.9478 8.94219 28.9635 12.3909 28.9242C13.4536 28.9124 14.0021 29.1917 13.5763 30.5448H4.89883C4.87965 30.6865 4.86047 30.8241 4.84129 30.9658C7.83736 31.6187 10.8296 32.2757 13.8257 32.9208C16.2578 33.4479 18.7053 33.8963 21.1068 34.5336C21.6707 34.6831 22.0773 35.4541 22.553 35.9379C21.9699 36.288 21.3945 36.9331 20.8076 36.9449C15.9548 37.0275 11.102 36.9724 6.24534 37.0079C5.1712 37.0157 4.64948 36.7246 5.07146 35.3321L5.07529 35.3282Z" fill="url(#paint1_linear_86_195)"/>
</g>
<defs>
<linearGradient id="paint0_linear_86_195" x1="29.0976" y1="0" x2="29.0976" y2="28.8219" gradientUnits="userSpaceOnUse">
<stop stop-color="#8236AF"/>
<stop offset="1" stop-color="#5A1E77"/>
</linearGradient>
<linearGradient id="paint1_linear_86_195" x1="11.2757" y1="28.9238" x2="11.2757" y2="37.008" gradientUnits="userSpaceOnUse">
<stop stop-color="#8236AF"/>
<stop offset="1" stop-color="#5A1E77"/>
</linearGradient>
<clipPath id="clip0_86_195">
<rect width="43" height="37" fill="white"/>
</clipPath>
</defs>
</svg>
