<svg width="52" height="42" viewBox="0 0 52 42" fill="none" xmlns="http://www.w3.org/2000/svg">
<g id="Layer_1" clipPath="url(#clip0_86_154)">
<path id="Vector" d="M6.82045 32.2188C6.66904 31.5265 6.51764 30.8603 6.37725 30.1914C6.17767 29.2403 6.61674 28.5259 7.57333 28.3085C8.52304 28.0924 9.48376 27.9231 10.4885 27.7235C10.4335 27.6148 10.4046 27.5391 10.3605 27.4744C9.72738 26.5315 9.54708 25.4869 9.85952 24.416C10.2697 23.0094 9.95036 21.9028 8.89742 20.8705C7.39303 19.3963 7.43432 16.9601 8.94972 15.486C9.95724 14.5074 10.26 13.4311 9.88567 12.0753C9.29795 9.94743 10.4927 7.86908 12.6302 7.31165C13.9914 6.95654 14.7691 6.16649 15.1146 4.80111C15.6266 2.7792 17.6155 1.61477 19.6567 2.04283C19.9085 2.09513 20.1645 2.13504 20.4151 2.19423C21.4928 2.44886 22.3571 2.11578 23.1086 1.31747C24.3144 0.0374269 25.9647 -0.345209 27.4828 0.331974C27.9879 0.556326 28.4669 0.905929 28.862 1.29407C29.7401 2.15844 30.7187 2.46125 31.9189 2.13642C34.3427 1.48126 36.3206 2.64706 36.9648 5.07364C37.2689 6.22155 37.9902 6.98131 39.1532 7.23319C41.3045 7.69841 42.7263 9.88825 42.1414 12.0051C42.0546 12.3176 42.0285 12.6479 41.9886 12.9714C41.8771 13.8729 42.1771 14.6175 42.8296 15.2493C44.6615 17.0248 44.6643 19.344 42.8461 21.1609C42.1125 21.8931 41.8028 22.7589 41.9982 23.7898C42.2597 25.1753 42.1069 26.487 41.5399 27.7249C42.3698 27.8873 43.1902 28.0387 44.0077 28.2107C44.3078 28.2741 44.6189 28.3443 44.8886 28.4819C45.5011 28.793 45.7654 29.3862 45.6291 30.0826C45.4984 30.7571 45.3428 31.426 45.2011 32.099C45.1942 32.1279 45.2135 32.1637 45.23 32.2353C46.2733 32.5037 47.3359 32.768 48.3929 33.0529C49.205 33.2717 50.0157 33.503 50.8195 33.7521C51.5614 33.9819 51.9784 34.4953 52.0004 35.1464C52.0225 35.7754 51.6522 36.2475 50.9062 36.542C50.2992 36.7815 49.6964 37.0348 49.0811 37.2509C48.6324 37.4078 48.6269 37.6363 48.8705 37.9831C49.2573 38.5309 49.6344 39.0856 50.0005 39.6472C50.3887 40.2445 50.3928 40.8364 50.0363 41.3346C49.6688 41.8494 49.0729 42.0545 48.386 41.8494C45.2699 40.9245 42.1152 40.1633 38.9096 39.6196C38.3508 39.5247 37.7892 39.4421 37.229 39.354C36.7032 39.2714 36.5491 39.0856 36.6193 38.5474C36.7432 37.595 36.8863 36.6439 37.0336 35.6075C29.6892 34.5972 22.3681 34.6068 14.9797 35.6006C15.0939 36.4154 15.2013 37.1903 15.31 37.9666C15.3362 38.1538 15.3651 38.341 15.3857 38.5295C15.4449 39.098 15.3114 39.259 14.7443 39.3623C12.9523 39.6885 11.1506 39.9692 9.37503 40.3698C7.43294 40.8075 5.51701 41.3621 3.58731 41.8618C2.51372 42.1398 1.58191 41.3732 1.73882 40.323C1.77598 40.0793 1.89985 39.8344 2.03474 39.621C2.39398 39.0553 2.77799 38.5048 3.15925 37.9528C3.39324 37.6142 3.33956 37.3981 2.93628 37.2536C2.33892 37.0375 1.75258 36.7912 1.15936 36.5641C0.363803 36.2585 -0.0147037 35.8043 0.000436573 35.1601C0.0169532 34.4816 0.460151 33.953 1.27222 33.7287C2.97619 33.2552 4.68842 32.8065 6.39652 32.3468C6.5259 32.3124 6.65253 32.2697 6.82045 32.2188ZM34.5409 24.8785C37.5662 21.3921 38.1567 14.7029 33.4701 10.2791C28.8798 5.94627 21.6937 6.38947 17.632 11.2385C13.7024 15.9292 14.9219 22.1395 17.4765 24.8496C18.5734 22.0583 20.5678 20.2043 23.4238 19.2339C20.5155 17.1157 20.8018 13.716 22.4425 11.9226C24.2538 9.9433 27.3149 9.80429 29.2873 11.6555C30.2769 12.5846 30.7875 13.7449 30.7944 15.1006C30.804 16.8431 30.0112 18.1851 28.5619 19.2312C31.4606 20.2153 33.4384 22.0844 34.5396 24.8799L34.5409 24.8785ZM25.9839 19.9469C22.6118 19.9565 19.5011 22.1959 18.4551 25.3699C18.2417 26.0154 18.7634 26.6485 19.4585 26.6017C20.3325 26.5426 21.2078 26.4916 22.0846 26.4503C25.6095 26.2824 29.1304 26.3499 32.6498 26.6155C33.2347 26.6596 33.7495 25.9837 33.5706 25.4318C32.5245 22.2001 29.396 19.9373 25.9853 19.9469H25.9839ZM25.9798 11.4353C23.929 11.4491 22.2801 13.109 22.2856 15.1543C22.2911 17.1914 23.962 18.8596 26.0004 18.8623C28.0623 18.8651 29.7305 17.1804 29.7167 15.1089C29.7043 13.0677 28.0279 11.4215 25.9784 11.4353H25.9798Z" fill="url(#paint0_linear_86_154)"/>
</g>
<defs>
<linearGradient id="paint0_linear_86_154" x1="26.0007" y1="0.00195312" x2="26.0007" y2="41.9279" gradientUnits="userSpaceOnUse">
<stop stop-color="#8236AF"/>
<stop offset="1" stop-color="#361039"/>
</linearGradient>
<clipPath id="clip0_86_154">
<rect width="52" height="41.9276" fill="white"/>
</clipPath>
</defs>
</svg>
