<svg width="36" height="47" viewBox="0 0 36 47" fill="none" xmlns="http://www.w3.org/2000/svg">
<g clipPath="url(#clip0_86_218)">
<path d="M17.9059 0C21.7291 0.197155 24.4094 1.99971 26.0491 5.35529C26.8538 7.00237 27.084 8.76437 26.916 10.59C26.7614 12.267 26.5094 13.9214 25.9432 15.5144C25.2163 17.5592 24.1742 19.4028 22.521 20.8426C21.1534 22.034 19.5815 22.7229 17.7441 22.648C15.9537 22.5753 14.4624 21.7952 13.1783 20.5813C11.8057 19.2829 10.8693 17.6955 10.2046 15.9374C9.34832 13.673 8.93671 11.3161 9.0532 8.90576C9.2604 4.61624 12.2733 1.04267 16.2443 0.220813C16.8172 0.10252 17.4064 0.0647794 17.9054 0.000563299L17.9059 0Z" fill="url(#paint0_linear_86_218)"/>
<path d="M12.9879 39.9261C11.1913 39.889 9.39368 39.885 7.5994 39.8005C6.64401 39.7555 5.69031 39.6011 4.74612 39.4366C4.22811 39.3465 3.71625 39.1685 3.22736 38.9674C1.43027 38.2278 0.428405 36.8449 0.133277 34.9387C-0.730266 29.3654 2.68135 23.8141 8.08157 21.989C8.94959 21.6955 9.83834 21.5012 10.7136 21.4263C11.3633 23.5893 12.6082 25.4088 13.773 27.2666C14.4338 28.3205 15.1406 29.3451 15.8434 30.4075C15.6177 30.4762 15.3993 30.5376 15.1848 30.6092C12.8439 31.395 11.2686 32.9874 10.4101 35.2891C9.74537 37.0708 10.5216 38.8018 12.2654 39.5527C12.5046 39.6558 12.7504 39.7431 12.9929 39.8371L12.9879 39.9256V39.9261Z" fill="url(#paint1_linear_86_218)"/>
<path d="M25.213 21.4183C26.5962 21.5478 27.8938 21.8779 29.1096 22.4762C32.8454 24.3148 35.0995 27.2991 35.8354 31.4185C36.0577 32.6629 36.0582 33.9202 35.8158 35.1701C35.4333 37.14 34.2836 38.4367 32.417 39.1098C31.3732 39.4867 30.2895 39.6782 29.1891 39.7475C27.8311 39.8331 26.4702 39.8742 25.0551 39.9368C26.0177 37.8723 26.1281 35.8427 25.124 33.8464C24.1098 31.8303 22.3312 30.8293 20.1818 30.3387C20.4725 29.9083 20.7497 29.5005 21.0235 29.0904C22.2102 27.3155 23.3845 25.5321 24.3707 23.6337C24.7319 22.9381 25.1178 22.2463 25.2136 21.4177L25.213 21.4183Z" fill="url(#paint2_linear_86_218)"/>
<path d="M17.5352 42.7076C17.2087 42.7076 16.8817 42.7167 16.5557 42.7054C16.1273 42.6907 15.9459 42.5105 15.9308 42.0773C15.8798 40.6172 16.3681 39.4523 17.7256 38.7561C18.0986 38.5646 18.4609 38.3483 18.8098 38.1162C19.2315 37.8357 19.4533 37.425 19.4913 36.9141C19.5333 36.348 19.2449 35.9295 18.7006 35.7779C17.8539 35.5419 17.1062 35.8151 16.6369 36.5587C16.4527 36.8505 16.3149 37.171 16.1542 37.478C15.9274 37.9117 15.723 38.0103 15.2666 37.8492C14.6074 37.6165 13.9522 37.3704 13.3037 37.1096C12.8126 36.9119 12.7107 36.6178 12.9257 36.0866C13.7103 34.1472 15.1613 33.0961 17.2115 32.8617C18.4133 32.7243 19.5977 32.7992 20.7351 33.2532C22.8632 34.1032 23.7872 36.4184 22.8173 38.4463C22.5255 39.0563 22.0747 39.525 21.522 39.8928C21.126 40.1565 20.7043 40.3807 20.3006 40.633C20.0402 40.7958 19.782 40.9659 19.5401 41.1558C19.269 41.3681 19.138 41.6588 19.1262 42.0114C19.1077 42.551 18.9414 42.7043 18.4027 42.7099C18.1137 42.7127 17.8242 42.7099 17.5346 42.7099V42.7082L17.5352 42.7076Z" fill="url(#paint3_linear_86_218)"/>
<path d="M15.2794 24.0123C17.1012 24.7513 18.8887 24.7513 20.7424 23.9999C20.6898 24.2596 20.6696 24.4787 20.6007 24.6809C20.3873 25.305 19.9948 25.7979 19.4359 26.1432C19.2746 26.2429 19.2382 26.3443 19.2522 26.5268C19.3424 27.6765 19.4191 28.8274 19.4986 29.9776C19.5036 30.0497 19.4992 30.1229 19.4992 30.2097H16.4835C16.5076 29.8334 16.5316 29.4149 16.5608 28.9969C16.6201 28.1458 16.6873 27.2952 16.7344 26.4435C16.7394 26.3533 16.6554 26.2238 16.5748 26.1691C15.8602 25.6819 15.3842 25.0454 15.28 24.1627C15.2755 24.1272 15.28 24.0906 15.28 24.0123H15.2794Z" fill="url(#paint4_linear_86_218)"/>
<path d="M17.5598 47C17.2255 46.9797 16.8889 46.9763 16.5568 46.9352C16.0058 46.867 15.6854 46.5595 15.6485 46.0013C15.6115 45.4425 15.6104 44.8769 15.6502 44.3187C15.6899 43.7605 16.013 43.432 16.5675 43.3988C17.2255 43.3599 17.8891 43.3605 18.5471 43.3988C19.087 43.4298 19.4034 43.7193 19.4515 44.2607C19.5053 44.8628 19.5031 45.4774 19.4504 46.0796C19.4045 46.6051 19.0858 46.8614 18.565 46.938C18.4547 46.9544 18.3433 46.9724 18.2318 46.9752C18.0084 46.9808 17.7844 46.9769 17.5609 46.9769C17.5609 46.9842 17.5604 46.9921 17.5598 46.9994V47Z" fill="url(#paint5_linear_86_218)"/>
</g>
<defs>
<linearGradient id="paint0_linear_86_218" x1="18.0007" y1="0" x2="18.0007" y2="22.6536" gradientUnits="userSpaceOnUse">
<stop stop-color="#8236AF"/>
<stop offset="1" stop-color="#361749"/>
</linearGradient>
<linearGradient id="paint1_linear_86_218" x1="7.92169" y1="21.4263" x2="7.92169" y2="39.9261" gradientUnits="userSpaceOnUse">
<stop stop-color="#8236AF"/>
<stop offset="1" stop-color="#361749"/>
</linearGradient>
<linearGradient id="paint2_linear_86_218" x1="28.0909" y1="21.4177" x2="28.0909" y2="39.9368" gradientUnits="userSpaceOnUse">
<stop stop-color="#8236AF"/>
<stop offset="1" stop-color="#361749"/>
</linearGradient>
<linearGradient id="paint3_linear_86_218" x1="18.0106" y1="32.7998" x2="18.0106" y2="42.7112" gradientUnits="userSpaceOnUse">
<stop stop-color="#8236AF"/>
<stop offset="1" stop-color="#361749"/>
</linearGradient>
<linearGradient id="paint4_linear_86_218" x1="18.0102" y1="23.9999" x2="18.0102" y2="30.2097" gradientUnits="userSpaceOnUse">
<stop stop-color="#8236AF"/>
<stop offset="1" stop-color="#361749"/>
</linearGradient>
<linearGradient id="paint5_linear_86_218" x1="17.5557" y1="43.3699" x2="17.5557" y2="47" gradientUnits="userSpaceOnUse">
<stop stop-color="#8236AF"/>
<stop offset="1" stop-color="#361749"/>
</linearGradient>
<clipPath id="clip0_86_218">
<rect width="36" height="47" fill="white"/>
</clipPath>
</defs>
</svg>
