<svg width="53" height="53" viewBox="0 0 53 53" fill="none" xmlns="http://www.w3.org/2000/svg">
<path d="M37.2578 7.87063C37.2578 7.58 37.1423 7.30127 36.9368 7.09576C36.7313 6.89025 36.4526 6.7748 36.1619 6.7748H30.6828C27.9238 6.63736 25.2225 7.59753 23.1692 9.44551C21.1159 11.2935 19.8775 13.879 19.7245 16.6373V22.5547H14.2454C13.9547 22.5547 13.676 22.6702 13.4705 22.8757C13.265 23.0812 13.1495 23.3599 13.1495 23.6506V29.3489C13.1495 29.6395 13.265 29.9182 13.4705 30.1237C13.676 30.3292 13.9547 30.4447 14.2454 30.4447H19.7245V45.1288C19.7245 45.4194 19.84 45.6982 20.0455 45.9037C20.251 46.1092 20.5297 46.2246 20.8203 46.2246H27.3953C27.6859 46.2246 27.9647 46.1092 28.1702 45.9037C28.3757 45.6982 28.4911 45.4194 28.4911 45.1288V30.4447H34.2333C34.477 30.4482 34.7149 30.3704 34.9094 30.2235C35.1039 30.0766 35.2438 29.8691 35.3072 29.6338L36.8852 23.9355C36.9288 23.7736 36.9346 23.6038 36.9023 23.4393C36.87 23.2747 36.8003 23.1198 36.6987 22.9864C36.5971 22.853 36.4662 22.7448 36.3161 22.6699C36.1661 22.5951 36.0009 22.5557 35.8332 22.5547H28.4911V16.6373C28.5456 16.0948 28.8004 15.5921 29.2057 15.2273C29.6109 14.8626 30.1376 14.662 30.6828 14.6648H36.1619C36.4526 14.6648 36.7313 14.5493 36.9368 14.3438C37.1423 14.1383 37.2578 13.8596 37.2578 13.5689V7.87063Z" fill="url(#paint0_linear_86_185)"/>
<defs>
<linearGradient id="paint0_linear_86_185" x1="25.2036" y1="6.76184" x2="25.2036" y2="46.2246" gradientUnits="userSpaceOnUse">
<stop stop-color="#8236AF"/>
<stop offset="1" stop-color="#361749"/>
</linearGradient>
</defs>
</svg>
