<svg width="53" height="53" viewBox="0 0 53 53" fill="none" xmlns="http://www.w3.org/2000/svg">
<path d="M46.3739 8.83342C46.3509 8.63055 46.3064 8.43068 46.2414 8.23717V8.03842C46.1355 7.79265 45.9858 7.56817 45.7997 7.37592C45.6123 7.19983 45.3956 7.05784 45.1593 6.95633H44.9605C44.757 6.80089 44.5241 6.68821 44.276 6.62508H44.1655C43.946 6.59177 43.7226 6.59177 43.503 6.62508L3.75303 19.8751C3.31122 20.0203 2.92652 20.3013 2.6538 20.678C2.38108 21.0547 2.23425 21.5079 2.23425 21.973C2.23425 22.4381 2.38108 22.8913 2.6538 23.268C2.92652 23.6447 3.31122 23.9257 3.75303 24.0709L22.5901 30.3426L28.8618 49.1797C29.007 49.6215 29.288 50.0062 29.6647 50.2789C30.0414 50.5516 30.4946 50.6984 30.9597 50.6984C31.4248 50.6984 31.878 50.5516 32.2547 50.2789C32.6314 50.0062 32.9124 49.6215 33.0576 49.1797L46.3076 9.42967C46.3567 9.23485 46.379 9.03425 46.3739 8.83342ZM35.9947 13.8905L23.6943 26.1909L11.3939 22.0834L35.9947 13.8905ZM30.9155 41.6051L26.808 29.3047L39.1084 17.0042L30.9155 41.6051Z" fill="url(#paint0_linear_86_162)"/>
<defs>
<linearGradient id="paint0_linear_86_162" x1="24.3044" y1="6.6001" x2="24.3044" y2="50.6984" gradientUnits="userSpaceOnUse">
<stop stop-color="#8236AF"/>
<stop offset="1" stop-color="#361749"/>
</linearGradient>
</defs>
</svg>
