<svg width="58" height="40" viewBox="0 0 58 40" fill="none" xmlns="http://www.w3.org/2000/svg">
<g clippath="url(#clip0_86_202)">
<path d="M57.2334 0.849185C57.0993 2.71315 56.9504 4.57711 56.8355 6.44107C56.7185 8.33263 56.6376 10.2263 56.5334 12.2516C55.31 10.9502 54.1845 9.75077 53.059 8.55342L52.5058 8.4409C52.2441 8.85913 52.0526 9.34741 51.7101 9.68284C48.0824 13.2154 44.4208 16.7162 40.7847 20.2425C37.4039 23.5203 35.5698 23.4863 32.3592 20.0026C30.4656 17.9497 28.6061 15.867 26.7019 13.7653C26.0955 14.2833 25.538 14.7588 25.0423 15.1813C23.9508 13.7143 22.8849 12.2792 21.7657 10.774C23.3189 9.42171 24.97 7.98659 26.7402 6.44744C30.0571 9.98854 33.3379 13.4914 36.5124 16.8797C40.6549 12.8121 44.7399 8.80181 48.9484 4.6684C47.6931 3.47529 46.442 2.28855 45.025 0.944719C46.5165 0.827956 47.8037 0.732422 49.0867 0.624151C51.5207 0.420347 53.9505 0.20805 56.3823 0C56.6653 0 56.9504 0 57.2334 0V0.849185Z" fill="url(#paint0_linear_86_202)"/>
<path d="M46.5952 39.6994C46.508 39.26 46.3484 38.8226 46.3484 38.3832C46.3314 33.3687 46.3208 28.3522 46.3633 23.3377C46.3676 22.8473 46.625 22.2402 46.9718 21.892C48.8165 20.0408 50.7271 18.2554 52.8398 16.2322C53.0675 16.7311 53.3845 17.1026 53.3866 17.4762C53.4164 24.5054 53.4143 31.5324 53.3909 38.5615C53.3909 38.9415 53.1228 39.3194 52.9781 39.6973H46.5952V39.6994Z" fill="url(#paint1_linear_86_202)"/>
<path d="M0 29.2969C1.44466 27.9531 2.91486 26.6326 4.30846 25.2357C4.51697 25.0255 4.49569 24.412 4.36378 24.0681C2.51061 19.2723 4.52548 13.9734 9.08712 11.7549C13.202 9.7508 18.3359 10.9651 21.1104 14.5997C23.872 18.2151 23.6912 23.3378 20.6742 26.8173C17.7338 30.2119 12.553 31.0717 8.57649 28.8278C8.33181 28.6898 8.09139 28.5496 7.77224 28.3671C6.44035 29.6408 5.09568 30.887 3.80634 32.1863C3.25102 32.7467 2.8723 32.7595 2.34678 32.1608C1.60424 31.3137 0.785097 30.5304 0 29.7215C0 29.5793 0 29.4392 0 29.2969ZM21.1125 20.459C21.1125 16.1537 17.6828 12.7378 13.3552 12.7378C9.09138 12.7378 5.55312 16.2853 5.60419 20.5057C5.65525 24.7092 9.16159 28.1994 13.3445 28.2121C17.6019 28.2248 21.1104 24.7219 21.1125 20.459Z" fill="url(#paint2_linear_86_202)"/>
<path d="M23.404 39.6994C23.2869 39.3066 23.0742 38.9139 23.072 38.519C23.0444 35.5893 23.0486 32.6596 23.0678 29.7299C23.0678 29.4348 23.1401 29.0633 23.3252 28.8616C25.0848 26.9361 26.1401 24.6709 26.6507 21.9365C27.8252 23.1169 28.9039 24.1699 29.9337 25.2675C30.1166 25.4628 30.1613 25.8449 30.1613 26.14C30.1762 30.2352 30.1826 34.3304 30.1549 38.4235C30.1528 38.8481 29.9166 39.2726 29.789 39.6972H23.4061L23.404 39.6994Z" fill="url(#paint3_linear_86_202)"/>
<path d="M35.106 39.6994C34.9613 39.4298 34.6954 39.1623 34.6932 38.8927C34.6656 35.2263 34.6741 31.5621 34.6741 27.7705C37.1953 28.2566 39.4889 27.8002 41.7272 26.5031C41.7272 30.7745 41.7314 34.8972 41.7166 39.0179C41.7166 39.2451 41.5676 39.4722 41.4868 39.6994H35.1039H35.106Z" fill="url(#paint4_linear_86_202)"/>
<path d="M11.9147 39.6994C11.7636 39.4383 11.4849 39.1814 11.4807 38.9181C11.4445 36.9523 11.4615 34.9864 11.4615 33.1925C13.8338 32.959 16.1104 32.7339 18.5082 32.4983C18.5082 34.5321 18.521 36.7654 18.4891 38.9967C18.4848 39.2323 18.2253 39.4659 18.0848 39.6994H11.9147Z" fill="url(#paint5_linear_86_202)"/>
</g>
<defs>
<linearGradient id="paint0_linear_86_202" x1="39.4996" y1="0" x2="39.4996" y2="22.6592" gradientUnits="userSpaceOnUse">
<stop stop-color="#8236AF"/>
<stop offset="1" stop-color="#5A1E77"/>
</linearGradient>
<linearGradient id="paint1_linear_86_202" x1="49.8711" y1="16.2322" x2="49.8711" y2="39.6994" gradientUnits="userSpaceOnUse">
<stop stop-color="#8236AF"/>
<stop offset="1" stop-color="#5A1E77"/>
</linearGradient>
<linearGradient id="paint2_linear_86_202" x1="11.5327" y1="10.7933" x2="11.5327" y2="32.6082" gradientUnits="userSpaceOnUse">
<stop stop-color="#8236AF"/>
<stop offset="1" stop-color="#5A1E77"/>
</linearGradient>
<linearGradient id="paint3_linear_86_202" x1="26.6132" y1="21.9365" x2="26.6132" y2="39.6994" gradientUnits="userSpaceOnUse">
<stop stop-color="#8236AF"/>
<stop offset="1" stop-color="#5A1E77"/>
</linearGradient>
<linearGradient id="paint4_linear_86_202" x1="38.2003" y1="26.5031" x2="38.2003" y2="39.6994" gradientUnits="userSpaceOnUse">
<stop stop-color="#8236AF"/>
<stop offset="1" stop-color="#5A1E77"/>
</linearGradient>
<linearGradient id="paint5_linear_86_202" x1="14.9841" y1="32.4983" x2="14.9841" y2="39.6994" gradientUnits="userSpaceOnUse">
<stop stop-color="#8236AF"/>
<stop offset="1" stop-color="#5A1E77"/>
</linearGradient>
<clipPath id="clip0_86_202">
<rect width="57.2333" height="39.6994" fill="white"/>
</clipPath>
</defs>
</svg>
