<svg width="60" height="55" viewBox="0 0 60 55" fill="none" xmlns="http://www.w3.org/2000/svg">
<g clipPath="url(#clip0_86_233)">
<path d="M0 15.7053C0.52621 14.582 0.908089 13.3457 1.6087 12.3559C3.46998 9.73077 6.98506 8.88714 9.82059 10.2241C12.8185 11.6364 14.4392 14.8412 13.8709 18.2315C13.3191 21.5274 10.7197 23.9138 7.35341 24.2139C4.41115 24.4762 1.41175 22.3365 0.419465 19.2762C0.297685 18.8976 0.141325 18.5284 0 18.1561C0 17.3391 0 16.5238 0 15.7069V15.7053Z" fill="url(#paint0_linear_86_233)"/>
<path d="M42.3209 28.4147C44.0108 26.2043 46.081 25.5147 48.6264 26.1682C50.5192 26.6536 52.4512 26.9694 54.347 27.4438C57.4697 28.2246 59.1446 30.9912 58.5131 34.2777C58.023 36.8353 57.5043 39.3866 56.9661 41.9332C56.2444 45.3455 53.5878 47.2495 50.3554 46.4514C48.9256 46.0995 48.1753 46.4876 47.2492 47.6093C45.0015 50.3287 42.0247 52.0034 38.7697 53.0292C31.5832 55.2946 24.5214 55.0103 17.6972 51.5352C15.4616 50.3962 13.5327 48.8315 11.957 46.7892C11.7165 46.4766 11.1467 46.2975 10.7332 46.3038C9.96044 46.3163 9.19368 46.5866 8.4194 46.6117C6.05897 46.6902 3.89399 45.1616 3.30614 42.7706C2.56945 39.7747 1.92446 36.7426 1.45839 33.6902C0.999835 30.6943 2.71829 28.1932 5.54028 27.4753C7.69924 26.9254 9.87926 26.4604 12.0638 26.0299C14.4047 25.5681 16.2644 26.4887 17.7243 28.4399C18.9271 27.923 20.1073 27.4156 21.3371 26.8861C21.3371 25.5712 21.3131 24.2657 21.3416 22.9633C21.4123 19.8575 23.3412 17.5622 26.3045 17.3721C28.8303 17.2103 31.3817 17.2276 33.9075 17.3973C36.6032 17.5795 38.5307 19.8418 38.66 22.6821C38.7126 23.8635 38.6389 25.0512 38.7051 26.231C38.7231 26.5421 38.9832 26.9804 39.2463 27.1092C40.2296 27.5931 41.2579 27.9733 42.3224 28.4147H42.3209ZM21.3506 29.9056C20.7207 30.19 20.3102 30.435 19.8682 30.5623C18.8444 30.8592 18.5723 31.4059 18.8639 32.5323C19.354 34.416 19.6623 36.3514 20.0291 38.2681C20.6621 41.5672 19.0128 44.2819 15.8841 45.1129C15.4511 45.2276 15.0166 45.3423 14.3265 45.5261C19.8547 51.0278 26.3737 52.1715 33.3512 51.4158C37.9804 50.9147 42.2171 49.3028 45.6285 45.4806C45.1038 45.3565 44.8377 45.2968 44.5731 45.2308C40.8896 44.307 39.3365 41.7887 40.0672 37.902C40.3378 36.463 40.625 35.0271 40.9212 33.5943C41.283 31.8432 40.6626 30.6466 39.0599 30.0046C38.9652 29.9669 38.8449 29.9999 38.6795 29.9999C38.6795 30.3109 38.684 30.5953 38.6795 30.8781C38.6103 34.4741 36.4363 36.7536 33.016 36.7866C30.869 36.807 28.7206 36.8275 26.5752 36.7709C23.7321 36.6955 21.5611 34.4882 21.3597 31.5395C21.3266 31.0556 21.3552 30.5654 21.3552 29.904L21.3506 29.9056Z" fill="url(#paint1_linear_86_233)"/>
<path d="M53.018 9.59721C56.8593 9.61135 60.0271 12.9529 59.9985 16.9621C59.9715 20.9619 56.712 24.3113 52.9248 24.2358C49.124 24.1604 45.9998 20.866 45.9923 16.926C45.9848 12.9372 49.1992 9.58307 53.018 9.59721Z" fill="url(#paint2_linear_86_233)"/>
<path d="M36.8648 7.15904C36.9445 11.1949 33.8865 14.4941 29.9865 14.582C26.1993 14.6669 23.0285 11.473 22.9278 7.47481C22.8256 3.42476 25.8776 0.080085 29.743 -3.62702e-05C33.6294 -0.0785865 36.7837 3.0917 36.8648 7.15746V7.15904Z" fill="url(#paint3_linear_86_233)"/>
</g>
<defs>
<linearGradient id="paint0_linear_86_233" x1="6.9917" y1="9.59729" x2="6.9917" y2="24.2356" gradientUnits="userSpaceOnUse">
<stop stop-color="#8236AF"/>
<stop offset="1" stop-color="#5A1E77"/>
</linearGradient>
<linearGradient id="paint1_linear_86_233" x1="30.0149" y1="17.2599" x2="30.0149" y2="54.4869" gradientUnits="userSpaceOnUse">
<stop stop-color="#8236AF"/>
<stop offset="1" stop-color="#5A1E77"/>
</linearGradient>
<linearGradient id="paint2_linear_86_233" x1="52.9955" y1="9.59717" x2="52.9955" y2="24.2371" gradientUnits="userSpaceOnUse">
<stop stop-color="#8236AF"/>
<stop offset="1" stop-color="#5A1E77"/>
</linearGradient>
<linearGradient id="paint3_linear_86_233" x1="29.8958" y1="-0.00146484" x2="29.8958" y2="14.5837" gradientUnits="userSpaceOnUse">
<stop stop-color="#8236AF"/>
<stop offset="1" stop-color="#5A1E77"/>
</linearGradient>
<clipPath id="clip0_86_233">
<rect width="60" height="54.4872" fill="white"/>
</clipPath>
</defs>
</svg>
