<svg width="53" height="56" viewBox="0 0 53 56" fill="none" xmlns="http://www.w3.org/2000/svg">
<g clipPath="url(#clip0_86_599)">
<path d="M32.5129 42.0975C27.5565 46.1317 21.9615 47.6234 15.74 46.2933C10.1346 45.0952 5.77093 41.9725 2.83934 37.021C-2.94944 27.2446 0.704163 15.7993 8.47312 10.4558C8.5007 10.6239 8.52575 10.7833 8.55334 10.942C8.82196 12.4997 9.30947 13.9932 9.86922 15.4649C9.92004 15.5984 9.9106 15.675 9.80243 15.776C7.56489 17.8688 6.06315 20.4014 5.32953 23.3863C5.08958 24.3626 4.96398 25.3554 4.93458 26.3617C4.85036 29.2233 5.52591 31.893 6.96158 34.36C8.51051 37.0214 10.6874 39.0127 13.4513 40.3483C15.691 41.4305 18.0614 41.9509 20.5411 41.7967C25.8166 41.4684 29.888 39.0386 32.6864 34.5325C34.2197 32.0633 34.9149 29.3356 34.8466 26.424C34.7736 23.3097 33.7914 20.5035 31.9477 18.0015C31.7317 17.7087 31.5055 17.4227 31.2703 17.1455C31.1843 17.0441 31.1799 16.9705 31.2376 16.8574C31.8399 15.6779 32.384 14.4725 32.8156 13.2186C32.9474 12.8356 33.0599 12.4461 33.1921 12.0241C36.6798 15.2654 38.8549 19.188 39.5395 23.9023C40.2238 28.6131 39.2389 32.9945 36.8467 37.0987C36.8979 37.1355 36.9491 37.1749 37.0028 37.2103C41.532 40.1999 46.0681 43.1782 50.5867 46.1835C52.2997 47.3229 53.1237 48.9711 52.9847 51.0299C52.8504 53.022 51.8423 54.5014 50.0807 55.4186C47.9579 56.5241 45.4132 56.0171 43.7325 54.2023C40.3091 50.5058 36.8841 46.8105 33.4599 43.1148C33.1474 42.7774 32.833 42.4415 32.5125 42.0975H32.5129Z" fill="url(#paint0_linear_86_599)"/>
<path d="M11.4778 9.43315C11.5529 7.30245 12.129 5.53684 13.259 3.96744C14.7161 1.94397 16.6796 0.684954 19.1099 0.186016C19.7263 0.0594578 20.3677 -0.00655669 20.9968 0.000373008C23.4586 0.0280918 25.6236 0.862209 27.4335 2.55269C29.0347 4.04805 29.9912 5.89755 30.3459 8.06508C30.6145 9.70779 30.3575 11.2754 29.7396 12.8065C28.9581 14.7442 27.9653 16.57 26.893 18.3553C25.2892 21.0262 23.5363 23.5964 21.6934 26.1053C21.2088 26.7651 20.7194 27.4216 20.2297 28.0777C20.0816 28.2761 20.0304 28.2732 19.9052 28.07C18.153 25.2285 16.5035 22.329 14.9993 19.347C14.1161 17.596 13.2884 15.8194 12.5991 13.9816C12.1987 12.9137 11.8295 11.8327 11.6342 10.7038C11.5507 10.2206 11.5126 9.72931 11.4771 9.43315H11.4778ZM25.0007 9.53491C25.0308 7.39254 23.3015 5.42815 20.9891 5.41976C18.7403 5.41137 16.9203 7.26817 16.925 9.53053C16.9297 11.8677 18.7872 13.6391 20.9438 13.6442C23.2452 13.6493 25.0243 11.7141 25.0003 9.53491H25.0007Z" fill="url(#paint1_linear_86_599)"/>
<path d="M20.2638 29.6996C21.6047 29.7233 23.2353 29.8331 24.8275 30.2551C25.2046 30.355 25.5705 30.5071 25.9288 30.6647C26.1615 30.7671 26.4025 30.9218 26.4051 31.2114C26.4072 31.4853 26.1735 31.6202 25.9589 31.7402C25.3756 32.0663 24.7349 32.2206 24.0877 32.3431C23.0291 32.5433 21.959 32.6414 20.8827 32.6896C19.6855 32.7432 18.4894 32.7337 17.2955 32.6407C16.0842 32.5466 14.8743 32.4237 13.7178 32.0167C13.4249 31.9135 13.1366 31.7719 12.8782 31.5994C12.5366 31.3715 12.5275 31.0717 12.86 30.8332C13.1065 30.6563 13.3918 30.5188 13.6782 30.4159C14.4779 30.13 15.3125 29.9954 16.1521 29.8867C17.4186 29.7222 18.6909 29.6814 20.2638 29.6989V29.6996Z" fill="url(#paint2_linear_86_599)"/>
</g>
<defs>
<linearGradient id="paint0_linear_86_599" x1="26.4999" y1="10.4558" x2="26.4999" y2="56" gradientUnits="userSpaceOnUse">
<stop stop-color="#8236AF"/>
<stop offset="1" stop-color="#361749"/>
</linearGradient>
<linearGradient id="paint1_linear_86_599" x1="20.9644" y1="-0.00012207" x2="20.9644" y2="28.2245" gradientUnits="userSpaceOnUse">
<stop stop-color="#8236AF"/>
<stop offset="1" stop-color="#361749"/>
</linearGradient>
<linearGradient id="paint2_linear_86_599" x1="19.5106" y1="29.6951" x2="19.5106" y2="32.7223" gradientUnits="userSpaceOnUse">
<stop stop-color="#8236AF"/>
<stop offset="1" stop-color="#361749"/>
</linearGradient>
<clipPath id="clip0_86_599">
<rect width="53" height="56" fill="white"/>
</clipPath>
</defs>
</svg>
