<svg width="47" height="32" viewBox="0 0 47 32" fill="none" xmlns="http://www.w3.org/2000/svg">
<g id="Group 91">
<path id="Vector" d="M7.29633 3.84138C7.29633 3.9083 7.29633 3.9617 7.29633 4.01543C7.29633 4.7462 7.29633 5.47664 7.29588 6.20742C7.29588 6.85908 8.02323 7.39735 8.9084 7.39933C9.80935 7.40131 10.543 6.86963 10.5435 6.20873C10.5444 4.63742 10.5435 3.06644 10.5417 1.49513C10.5407 0.804243 11.2519 0.277176 12.1839 0.278824C13.0921 0.280472 13.7924 0.816768 13.7897 1.50337C13.7865 2.22294 13.7888 2.94283 13.7888 3.6624C13.7888 3.71613 13.7888 3.76953 13.7888 3.8338H20.2848C20.2848 3.90269 20.2848 3.96038 20.2848 4.01839C20.2848 4.74917 20.283 5.47961 20.2844 6.21038C20.2853 6.86864 21.0225 7.4023 21.9248 7.39933C22.8095 7.39636 23.5292 6.85842 23.5292 6.20313C23.5288 4.63182 23.5292 3.06051 23.5297 1.4892C23.5297 0.800617 24.2457 0.276517 25.1801 0.278824C26.0779 0.281131 26.7813 0.817427 26.7786 1.49184C26.7754 2.26579 26.7777 3.04007 26.7777 3.8315H33.262C33.2665 3.90105 33.2728 3.95379 33.2728 4.00686C33.2733 4.73202 33.2737 5.45719 33.2728 6.18236C33.2719 6.8126 33.9014 7.33472 34.7397 7.39702C35.5608 7.458 36.3238 7.03971 36.4906 6.42793C36.5227 6.31125 36.5154 6.18797 36.5154 6.06733C36.5173 4.54018 36.5154 3.01271 36.5177 1.48557C36.5186 0.79732 37.2387 0.275528 38.1744 0.278824C39.0704 0.281791 39.7698 0.818746 39.7666 1.49612C39.7635 2.21041 39.7653 2.92437 39.7648 3.63867C39.7648 3.69833 39.7648 3.75766 39.7648 3.83809C40.1463 3.83809 40.512 3.84468 40.8768 3.83677C41.7494 3.81765 42.6057 3.87072 43.4015 4.15815C45.2382 4.82168 46.2491 5.90054 46.2537 7.40329C46.2726 13.5399 46.2604 19.6765 46.26 25.813C46.26 26.4064 46.2568 26.9997 46.2622 27.593C46.2775 29.3459 44.4256 30.8905 42.0429 31.1048C41.8125 31.1256 41.5789 31.1338 41.3467 31.1341C31.967 31.1355 22.5877 31.1355 13.208 31.1355C10.7279 31.1355 8.24734 31.119 5.76769 31.1417C3.41792 31.1631 1.27872 29.9508 0.86297 28.1557C0.812016 27.9351 0.801644 27.7077 0.801644 27.4832C0.799841 22.764 0.802095 18.0448 0.802997 13.3256C0.802997 11.337 0.800742 9.34806 0.801193 7.35945C0.801193 5.68595 2.51561 4.1921 4.76619 3.90335C4.95828 3.87863 5.15173 3.84666 5.34473 3.84435C5.98324 3.83677 6.62175 3.84138 7.29679 3.84138H7.29633ZM41.3791 10.9705H5.68923V27.5666H41.3791V10.9705Z" fill="url(#paint0_linear_322_677)"/>
<path id="Vector_2" d="M21.7195 20.166C23.5647 18.7899 25.3995 17.4137 27.2465 16.0464C28.3021 15.2649 29.3749 14.4959 30.4458 13.7259C30.9139 13.3893 31.4762 13.2812 32.1034 13.4322C32.7284 13.5828 33.1004 13.9121 33.2086 14.3835C33.2898 14.7371 33.1523 15.0589 32.8371 15.3344C30.8801 17.0438 28.9212 18.752 26.9624 20.4607C25.8288 21.4496 24.6924 22.4371 23.5624 23.4283C22.7102 24.1756 21.3042 24.2115 20.3816 23.5101C18.94 22.4134 17.4952 21.3191 16.0486 20.226C15.5725 19.8661 15.4056 19.4451 15.6189 18.9715C15.8295 18.5034 16.2998 18.2325 16.969 18.1619C17.3798 18.1184 17.7581 18.1982 18.0995 18.3676C19.1925 18.9102 20.2851 19.454 21.3777 19.9973C21.4575 20.0371 21.5378 20.0767 21.719 20.1664L21.7195 20.166Z" fill="url(#paint1_linear_322_677)"/>
</g>
<defs>
<linearGradient id="paint0_linear_322_677" x1="23.5326" y1="0.278809" x2="23.5326" y2="31.142" gradientUnits="userSpaceOnUse">
<stop stop-color="#8236AF"/>
<stop offset="1" stop-color="#361749"/>
</linearGradient>
<linearGradient id="paint1_linear_322_677" x1="24.3795" y1="13.3654" x2="24.3795" y2="24.0133" gradientUnits="userSpaceOnUse">
<stop stop-color="#8236AF"/>
<stop offset="1" stop-color="#361749"/>
</linearGradient>
</defs>
</svg>
