<svg width="62" height="51" viewBox="0 0 62 51" fill="none" xmlns="http://www.w3.org/2000/svg">
<g clipPath="url(#clip0_86_592)">
<path d="M23.986 33.448C22.0891 27.4676 20.2328 21.6143 18.4463 15.9717C22.0397 13.5461 25.7028 11.3861 28.9941 8.76409C32.2941 6.13341 35.2194 3.0407 38.3887 0.0779419C42.0285 11.5594 45.6917 23.1101 49.4594 34.9958C40.9508 32.9773 32.6137 31.9897 23.9889 33.448H23.986Z" fill="url(#paint0_linear_86_592)"/>
<path d="M20.8952 34.4529C17.5022 35.4665 14.2806 36.688 10.9458 37.3666C6.09162 38.3542 1.57154 35.2297 0.296272 30.3928C-0.909276 25.8245 1.65288 20.9963 6.23686 19.3965C9.1447 18.383 12.1106 17.5282 15.2044 16.5551C17.1042 22.5297 18.975 28.4119 20.8981 34.4529H20.8952Z" fill="url(#paint1_linear_86_592)"/>
<path d="M12.3547 40.1965C15.3672 39.2465 18.1617 38.3282 20.9853 37.5139C21.3746 37.4012 22.0979 37.6756 22.3535 38.0077C23.408 39.3793 24.3695 40.826 25.3136 42.2785C26.2984 43.7975 27.4168 45.1142 29.1511 45.8795C29.5897 46.073 30.0603 46.8699 30.0022 47.3262C29.9354 47.8575 29.398 48.5766 28.8983 48.7614C26.7748 49.5411 24.5932 50.1706 22.4203 50.8174C21.1799 51.187 20.0673 50.8434 19.3179 49.8269C17.0026 46.6967 14.7542 43.5231 12.3576 40.1994L12.3547 40.1965Z" fill="url(#paint2_linear_86_592)"/>
<path d="M50.7985 0C61.4277 5.23825 64.8119 18.5996 59.5772 27.716C58.4501 27.1413 57.3143 26.5609 56.0478 25.9169C57.9563 21.7933 58.5024 17.6206 57.1022 13.292C55.7021 8.96047 52.9162 5.78691 48.9307 3.55185C49.5639 2.34768 50.1653 1.20705 50.7985 0.00288768V0Z" fill="url(#paint3_linear_86_592)"/>
<path d="M53.2009 24.4384C52.1087 23.8724 51.0106 23.3007 49.8196 22.6827C52.0041 17.2856 50.5661 12.9772 45.7062 9.70547C46.3133 8.54751 46.9117 7.41554 47.5072 6.28357C55.1704 10.1357 56.3789 19.4341 53.2038 24.4384H53.2009Z" fill="url(#paint4_linear_86_592)"/>
</g>
<defs>
<linearGradient id="paint0_linear_86_592" x1="33.9528" y1="0.0779419" x2="33.9528" y2="34.9958" gradientUnits="userSpaceOnUse">
<stop stop-color="#8236AF"/>
<stop offset="1" stop-color="#361039"/>
</linearGradient>
<linearGradient id="paint1_linear_86_592" x1="10.4487" y1="16.5551" x2="10.4487" y2="37.5488" gradientUnits="userSpaceOnUse">
<stop stop-color="#8236AF"/>
<stop offset="1" stop-color="#361039"/>
</linearGradient>
<linearGradient id="paint2_linear_86_592" x1="21.1809" y1="37.4882" x2="21.1809" y2="50.9618" gradientUnits="userSpaceOnUse">
<stop stop-color="#8236AF"/>
<stop offset="1" stop-color="#361039"/>
</linearGradient>
<linearGradient id="paint3_linear_86_592" x1="55.4662" y1="0" x2="55.4662" y2="27.716" gradientUnits="userSpaceOnUse">
<stop stop-color="#8236AF"/>
<stop offset="1" stop-color="#361039"/>
</linearGradient>
<linearGradient id="paint4_linear_86_592" x1="50.2736" y1="6.28357" x2="50.2736" y2="24.4384" gradientUnits="userSpaceOnUse">
<stop stop-color="#8236AF"/>
<stop offset="1" stop-color="#361039"/>
</linearGradient>
<clipPath id="clip0_86_592">
<rect width="62" height="50.9589" fill="white"/>
</clipPath>
</defs>
</svg>
