<svg width="37" height="42" viewBox="0 0 37 42" fill="none" xmlns="http://www.w3.org/2000/svg">
<path id="Vector" d="M3.55966 12.0001C4.49966 12.7201 5.50967 13.3601 6.47967 14.0401C6.77967 14.2501 7.07966 14.4601 7.43966 14.7101C6.68966 15.4501 5.97965 16.1501 5.26965 16.8501C4.91965 17.2001 4.57966 17.5601 4.21966 17.9001C4.05966 18.0501 4.01965 18.2001 4.07965 18.4201C4.62965 20.4501 5.15966 22.4801 5.71966 24.5001C5.78966 24.7501 5.92965 25.0001 6.10965 25.1801C11.5396 30.6201 16.9797 36.0501 22.4197 41.4901H23.7097C27.9397 37.2701 32.1197 33.1001 36.3197 28.9101C36.1797 28.7601 36.0997 28.6701 36.0196 28.5901C30.4496 23.0301 24.8897 17.4701 19.3197 11.9101C19.1697 11.7601 18.9697 11.6301 18.7696 11.5801C16.7396 11.0301 14.7097 10.4901 12.6797 9.94009C12.3897 9.86009 12.2097 9.91009 11.9997 10.1301C10.9897 11.1601 9.95965 12.1801 8.92965 13.2001C8.83965 13.2901 8.74967 13.3701 8.63968 13.4701C7.13968 12.5101 5.60967 11.6101 4.44967 10.2301C3.32967 8.91009 3.50965 7.82009 4.98965 6.92009C6.38965 6.07009 7.93966 5.65009 9.52966 5.37009C13.9297 4.62009 18.3796 4.36009 22.8296 4.12009C25.9596 3.95009 29.0797 3.70009 32.1297 2.92009C32.5097 2.82009 32.8997 2.73009 33.2696 2.60009C33.6697 2.46009 33.8397 2.09009 33.7197 1.71009C33.5997 1.32009 33.2697 1.13009 32.8397 1.25009C29.9697 2.09009 27.0197 2.24009 24.0697 2.43009C23.5597 2.46009 23.0397 2.49009 22.5097 2.45009C22.8097 2.29009 23.1097 2.14009 23.4097 1.98009C24.1097 1.61009 24.1997 1.16009 23.6697 0.590088H22.9397C21.6897 1.36009 20.3696 1.74009 18.9897 1.95009C16.6096 2.30009 14.2197 2.09009 11.8397 2.00009C9.84966 1.93009 7.84966 1.87009 5.87966 2.27009C4.45966 2.56009 3.11966 3.08009 1.96966 3.97009C0.749661 4.92009 0.32967 6.44009 0.75967 8.01009C1.21967 9.69009 2.24966 10.9601 3.58966 11.9801L3.55966 12.0001ZM25.4197 23.5701C25.6397 23.3501 25.9297 23.2601 26.1997 23.4301C26.3997 23.5601 26.5197 23.7901 26.7097 24.0101C26.5397 24.2701 26.4397 24.4801 26.2897 24.6401C23.8797 27.0601 21.4596 29.4701 19.0496 31.8801C18.6896 32.2401 18.2997 32.2701 17.9997 31.9901C17.6997 31.7101 17.7196 31.2601 18.0796 30.9101C20.1096 28.8801 22.1397 26.8501 24.1697 24.8301C24.5897 24.4101 25.0097 23.9901 25.4297 23.5801L25.4197 23.5701ZM21.1197 19.5301C21.1997 19.4501 21.2797 19.3301 21.3697 19.3201C21.5997 19.2801 21.8697 19.2201 22.0597 19.3001C22.2497 19.3801 22.3597 19.6401 22.5297 19.8701C22.3397 20.1401 22.2196 20.3701 22.0496 20.5401C20.2696 22.3301 18.4797 24.1101 16.6997 25.8901C16.0997 26.4901 15.4897 27.1001 14.8897 27.7001C14.5097 28.0701 14.1097 28.1101 13.8097 27.8201C13.5097 27.5201 13.5497 27.0901 13.9297 26.7101C16.3297 24.3101 18.7197 21.9201 21.1197 19.5301ZM9.80966 16.0101C10.1997 16.2101 10.2997 16.4601 10.1797 16.9301C9.90965 17.9701 10.5497 19.1101 11.5697 19.5201C12.6097 19.9401 13.8097 19.5701 14.4097 18.6401C15.0197 17.7001 14.8797 16.4401 14.0697 15.6901C13.3897 15.0501 12.5697 14.8401 11.7097 15.1801C11.2597 15.3601 11.0397 15.2201 10.8097 14.9001C11.7497 14.0501 13.5797 14.2001 14.5897 15.2201C15.7397 16.3701 15.7797 18.1801 14.6797 19.4101C13.6097 20.6001 11.7697 20.7101 10.4997 19.6601C9.42966 18.7701 9.08967 16.9901 9.81967 16.0201L9.80966 16.0101ZM11.0697 16.9201C12.0097 17.3201 12.8697 17.2301 13.6197 16.5401C14.1297 17.0201 13.9497 17.9201 13.5997 18.3201C13.1197 18.8701 12.3597 19.0101 11.7197 18.6501C11.0997 18.3001 10.8197 17.5901 11.0697 16.9101V16.9201ZM2.21966 6.46009C2.54966 5.66009 3.16966 5.12009 3.90966 4.70009C5.01966 4.07009 6.22967 3.76009 7.47967 3.67009C8.92967 3.56009 10.3897 3.52009 11.8497 3.46009C11.8497 3.51009 11.8597 3.56009 11.8697 3.61009C11.6197 3.66009 11.3797 3.69009 11.1397 3.75009C9.36967 4.15009 7.58965 4.52009 5.82965 4.97009C4.93965 5.20009 4.12967 5.64009 3.41967 6.24009C2.92967 6.66009 2.55965 7.15009 2.32965 7.76009C2.30965 7.82009 2.25967 7.88009 2.19967 7.99009C1.99967 7.43009 2.02967 6.94009 2.22967 6.46009H2.21966Z" fill="url(#paint0_linear_1_8558)"/>
<defs>
<linearGradient id="paint0_linear_1_8558" x1="0.559668" y1="21.0501" x2="36.3097" y2="21.0501" gradientUnits="userSpaceOnUse">
<stop stop-color="#8E4EB5"/>
<stop offset="1" stop-color="#37174A"/>
</linearGradient>
</defs>
</svg>
