<svg width="59" height="58" viewBox="0 0 59 58" fill="none" xmlns="http://www.w3.org/2000/svg">
<path id="Vector" d="M30.47 57.39C12.93 57.94 -1.88004 41.4 1.45996 23.95C7.05996 -8.63 54.49 -7.2 58.14 25.68C60.24 41.85 46.68 57.05 30.46 57.39H30.47ZM45.85 44.85C45.24 38.36 48.68 20.9 39.94 19.87C36.96 19.63 32.87 19.15 31.51 22.59V19.71H24.31V44.83H31.53C31.53 40.1 31.53 35.38 31.53 30.65C31.38 27.57 33.91 26.46 36.36 27.13C37.5499 27.46 38.23 28.26 38.47 29.43C38.81 34.55 38.5 39.71 38.6 44.85H45.84H45.85ZM20.73 19.69H13.53V44.83H20.73V19.69ZM20.76 14.34C20.83 9.56 13.49 9.54 13.49 14.26C13.41 19.09 20.78 19.09 20.76 14.34Z" fill="url(#paint0_linear_1_8276)"/>
<defs>
<linearGradient id="paint0_linear_1_8276" x1="0.989958" y1="28.83" x2="58.36" y2="28.83" gradientUnits="userSpaceOnUse">
<stop stop-color="#8236AF"/>
<stop offset="1" stop-color="#361039"/>
</linearGradient>
</defs>
</svg>
