<svg width="50" height="35" viewBox="0 0 50 35" fill="none" xmlns="http://www.w3.org/2000/svg">
<g id="Clip path group">
<mask id="mask0_1_8270" style="mask-type:luminance" maskUnits="userSpaceOnUse" x="0" y="0" width="50" height="35">
<g id="clippath-1">
<path id="Vector" d="M50 0H0V35H50V0Z" fill="white"/>
</g>
</mask>
<g mask="url(#mask0_1_8270)">
<g id="Group">
<path id="Vector_2" d="M-9.53674e-06 24.15V21.12C0.0299905 21.01 0.0799904 20.91 0.0799904 20.8C0.30999 16.88 1.25999 13.12 2.68999 9.49C3.78999 6.69 5.24999 4.12 7.57999 2.14C10.43 -0.280001 14.46 -0.650001 17.69 1.23C19.79 2.45 21.49 4.12 23.04 5.96C23.72 6.76 24.35 7.6 25.01 8.43C25.68 7.59 26.3 6.76 26.97 5.97C28.66 3.97 30.49 2.13 32.88 0.950001C35.77 -0.469999 38.61 -0.279999 41.35 1.37C43.43 2.63 44.88 4.49 45.98 6.61C48.69 11.83 50.04 17.39 50 23.28C49.98 25.57 49.66 27.82 48.74 29.95C47.83 32.06 46.45 33.73 44.23 34.55C43.7 34.75 43.14 34.85 42.6 34.99H40.84C40.26 34.8 39.65 34.66 39.09 34.42C36.85 33.47 35.11 31.85 33.49 30.1C30.35 26.7 27.76 22.91 25.4 18.94C25.28 18.74 25.16 18.54 25.01 18.28C24.87 18.51 24.78 18.66 24.69 18.81C22.38 22.69 19.85 26.41 16.82 29.77C15.32 31.43 13.72 32.99 11.71 34.03C10.91 34.44 10.02 34.67 9.17999 34.98H7.41999C7.35999 34.95 7.30999 34.91 7.24999 34.9C5.30999 34.64 3.76999 33.68 2.57999 32.16C1.07999 30.25 0.499991 28 0.189991 25.65C0.119991 25.14 0.0599902 24.63 -0.0100098 24.13L-9.53674e-06 24.15ZM45.03 22.17C44.97 21.47 44.91 20.28 44.74 19.11C44.23 15.53 43.26 12.08 41.53 8.89C40.88 7.68 40.09 6.56 38.93 5.77C38.02 5.15 37.03 4.83 35.93 5.11C34.93 5.37 34.11 5.96 33.33 6.61C31.22 8.39 29.6 10.59 28.07 12.86C27.98 13 28.02 13.3 28.1 13.46C30.6 18.25 33.56 22.74 37.2 26.75C38.24 27.89 39.36 28.97 40.74 29.7C41.63 30.17 42.6 30.05 43.26 29.29C43.67 28.81 44.01 28.23 44.25 27.63C44.88 26.03 44.97 24.34 45.01 22.16L45.03 22.17ZM4.96999 23.25C5.08999 24.06 5.21999 25.52 5.54999 26.94C5.73999 27.74 6.15999 28.52 6.64999 29.19C7.29999 30.08 8.37999 30.27 9.29999 29.69C10.25 29.08 11.19 28.4 11.98 27.6C16.1 23.43 19.24 18.56 21.96 13.4C22.04 13.25 22.01 12.95 21.91 12.8C21 11.55 20.11 10.29 19.13 9.09C18.03 7.74 16.79 6.51 15.27 5.61C13.78 4.73 12.36 4.87 10.98 5.85C9.87999 6.64 9.10999 7.71 8.48999 8.88C6.22999 13.17 5.13999 17.77 4.95999 23.25H4.96999Z" fill="url(#paint0_linear_1_8270)"/>
</g>
</g>
</g>
<defs>
<linearGradient id="paint0_linear_1_8270" x1="25" y1="6.75251e-07" x2="25" y2="35" gradientUnits="userSpaceOnUse">
<stop stop-color="#8236AF"/>
<stop offset="1" stop-color="#361039"/>
</linearGradient>
</defs>
</svg>
