<svg width="55" height="55" viewBox="0 0 55 55" fill="none" xmlns="http://www.w3.org/2000/svg">
<g id="Layer_1" clipPath="url(#clip0_86_609)">
<path id="Vector" d="M6.60587 51.2027C7.21505 51.2027 7.76777 51.1952 8.32049 51.2042C9.12282 51.2175 9.47347 51.5681 9.48238 52.36C9.48833 52.8785 9.49279 53.397 9.48238 53.9155C9.46753 54.6346 9.13619 54.9867 8.43044 54.9897C6.24482 54.9986 4.05772 55.0075 1.8721 54.9852C0.774089 54.9748 0.0237585 54.2171 0.0133579 53.1192C-0.00447173 50.9338 0.00147148 48.7468 0.0103863 46.5614C0.0133579 45.878 0.358064 45.5378 1.03708 45.5199C1.59277 45.5051 2.14846 45.508 2.70415 45.5199C3.40099 45.5333 3.77096 45.8839 3.79473 46.5777C3.81404 47.1661 3.79919 47.7544 3.79919 48.3398C4.028 48.3843 4.09338 48.2209 4.18847 48.1273C5.82879 46.4931 7.45872 44.8484 9.10796 43.2216C9.37095 42.9616 9.39918 42.8056 9.15254 42.504C6.27899 38.9948 4.51089 34.9805 3.97897 30.4818C3.20932 23.9686 4.83182 18.0779 8.842 12.8661C8.96681 12.7042 9.08865 12.5392 9.22831 12.3937C9.40512 12.2094 9.39918 12.0727 9.21048 11.8855C7.47506 10.1636 5.74707 8.43133 4.01611 6.70497C3.98194 6.6708 3.92696 6.65446 3.7977 6.58463C3.7977 7.18336 3.80216 7.72712 3.7977 8.27088C3.7873 9.13703 3.44408 9.47725 2.57637 9.48171C2.05782 9.48468 1.53779 9.49508 1.02073 9.47874C0.369951 9.45794 0.0148437 9.11921 0.0118721 8.4759C-1.43211e-05 6.25332 -0.00892914 4.02925 0.0163295 1.80667C0.0282159 0.778579 0.793405 0.0268231 1.8305 0.0149377C4.03543 -0.00734757 6.24036 8.08442e-05 8.44529 0.0104806C9.12579 0.013452 9.46158 0.361102 9.47941 1.04452C9.49427 1.60016 9.4913 2.15581 9.47941 2.71145C9.46604 3.40378 9.10945 3.77075 8.41261 3.79303C7.8272 3.81234 7.23882 3.79749 6.6445 3.79749C6.64153 4.04708 6.8124 4.12434 6.92086 4.23279C8.5285 5.84773 10.1495 7.4493 11.7453 9.07612C12.0484 9.38514 12.2237 9.37326 12.5476 9.10881C16.0482 6.25332 20.0509 4.50467 24.5276 3.97726C31.0607 3.20767 36.9698 4.83598 42.182 8.88595C42.8818 9.42971 42.8714 9.44308 43.5103 8.80573C45.0035 7.31261 46.4982 5.8195 47.99 4.32491C48.1281 4.18674 48.2544 4.03817 48.4758 3.79749C47.8057 3.79749 47.2589 3.80343 46.7137 3.79749C45.8727 3.78709 45.525 3.44241 45.5176 2.61786C45.5131 2.09935 45.5072 1.58085 45.5191 1.06234C45.5354 0.371502 45.8653 0.0149377 46.5368 0.0119663C48.7418 0.00156653 50.9467 -0.00586189 53.1502 0.0164234C54.2155 0.0268231 54.9732 0.78155 54.9851 1.84679C55.0074 4.05154 55 6.25629 54.9896 8.46105C54.9866 9.13258 54.6285 9.46537 53.9421 9.4832C53.3864 9.49657 52.8307 9.49508 52.275 9.4832C51.5886 9.46834 51.2305 9.10583 51.2052 8.40311C51.1859 7.82963 51.1889 7.25616 51.1785 6.68268C51.1785 6.67228 51.1517 6.66337 51.125 6.64406C50.9333 6.67526 50.8412 6.85057 50.7179 6.97388C49.1296 8.55613 47.5546 10.1518 45.9529 11.7191C45.6364 12.0297 45.6082 12.2079 45.8979 12.5645C48.5798 15.8479 50.2915 19.5918 50.9125 23.7799C51.9214 30.5844 50.3197 36.744 46.1015 42.2009C45.5711 42.8873 45.5592 42.8799 46.1684 43.4875C47.6616 44.9806 49.1563 46.4737 50.6451 47.9713C50.7877 48.1139 50.8962 48.2892 51.1116 48.5656C51.2558 47.8584 51.1889 47.331 51.1978 46.811C51.2142 45.8349 51.5217 45.5244 52.5113 45.5214C53.012 45.5214 53.5127 45.5066 54.0119 45.5274C54.633 45.5526 54.9851 45.8884 54.9881 46.5049C55 48.7468 55.0089 50.9887 54.9792 53.2291C54.9658 54.2275 54.2006 54.9763 53.1903 54.9867C50.9675 55.012 48.7448 55.0045 46.5205 54.9926C45.8757 54.9897 45.5384 54.6346 45.5191 53.9824C45.5027 53.4089 45.5042 52.834 45.5191 52.259C45.5354 51.6008 45.8935 51.2339 46.5606 51.2101C47.1505 51.1893 47.7433 51.2056 48.3391 51.2056C48.3763 50.9471 48.1727 50.8669 48.0553 50.7481C46.4492 49.1316 44.8267 47.5316 43.2324 45.9047C42.9397 45.6061 42.7763 45.6284 42.4702 45.878C38.9563 48.7468 34.9401 50.5029 30.4396 51.0303C24.1577 51.7672 18.4314 50.2563 13.3187 46.5035C13.0052 46.2732 12.6962 46.0355 12.402 45.7829C12.2163 45.6239 12.087 45.5898 11.8938 45.7859C10.1599 47.536 8.41706 49.2772 6.67719 51.0229C6.6549 51.0452 6.65044 51.0868 6.60438 51.2056L6.60587 51.2027ZM27.477 47.4097C38.5937 47.3488 47.461 38.4719 47.409 27.454C47.3585 16.3991 38.4273 7.54141 27.3789 7.58895C16.3334 7.63649 7.5241 16.6085 7.59096 27.7422C7.65485 38.5654 16.6558 47.4677 27.4784 47.4082L27.477 47.4097Z" fill="url(#paint0_linear_86_609)"/>
<path id="Vector_2" d="M35.8598 19.6928C30.9507 21.8054 21.1994 22.2348 17.2145 18.1952V24.7322C17.2472 24.8035 17.268 24.8808 17.2754 24.964C21.2098 28.8966 33.7827 28.9114 37.7186 24.9714V18.2635C37.1421 18.7909 36.5998 19.3481 35.8598 19.6942V19.6928Z" fill="url(#paint1_linear_86_609)"/>
<path id="Vector_3" d="M34.1051 35.1795C29.4427 36.3755 20.6423 36.8732 17.2472 32.9227V39.4672C20.3436 43.4518 28.4234 42.9139 32.9551 42.1176C34.6846 41.7388 36.6696 41.1861 37.7513 39.6677V33.0193C36.8568 34.2584 35.5047 34.759 34.1051 35.178V35.1795Z" fill="url(#paint2_linear_86_609)"/>
<path id="Vector_4" d="M36.8152 14.6251C31.866 11.7532 23.0715 11.7428 18.1386 14.6592C14.3276 18.5473 23.3568 20.0775 25.8916 20.076C28.5942 20.5084 41.1924 19.3421 36.8152 14.6251Z" fill="url(#paint3_linear_86_609)"/>
<path id="Vector_5" d="M35.5671 27.1583C30.508 29.0734 21.4951 29.4819 17.2754 25.6355C17.2561 27.7749 17.32 29.9143 17.2145 32.0522C20.2411 36.2299 34.5642 36.2195 37.7186 32.1502V25.6429C37.0737 26.2506 36.3992 26.8151 35.5671 27.1583Z" fill="url(#paint4_linear_86_609)"/>
</g>
<defs>
<linearGradient id="paint0_linear_86_609" x1="27.4999" y1="0.000427246" x2="27.4999" y2="55.0036" gradientUnits="userSpaceOnUse">
<stop stop-color="#8236AF"/>
<stop offset="1" stop-color="#361749"/>
</linearGradient>
<linearGradient id="paint1_linear_86_609" x1="27.4665" y1="18.1952" x2="27.4665" y2="27.9199" gradientUnits="userSpaceOnUse">
<stop stop-color="#8236AF"/>
<stop offset="1" stop-color="#361749"/>
</linearGradient>
<linearGradient id="paint2_linear_86_609" x1="27.4992" y1="32.9227" x2="27.4992" y2="42.6796" gradientUnits="userSpaceOnUse">
<stop stop-color="#8236AF"/>
<stop offset="1" stop-color="#361749"/>
</linearGradient>
<linearGradient id="paint3_linear_86_609" x1="27.4719" y1="12.4716" x2="27.4719" y2="20.1594" gradientUnits="userSpaceOnUse">
<stop stop-color="#8236AF"/>
<stop offset="1" stop-color="#361749"/>
</linearGradient>
<linearGradient id="paint4_linear_86_609" x1="27.4665" y1="25.6355" x2="27.4665" y2="35.1939" gradientUnits="userSpaceOnUse">
<stop stop-color="#8236AF"/>
<stop offset="1" stop-color="#361749"/>
</linearGradient>
<clipPath id="clip0_86_609">
<rect width="55" height="55" fill="white"/>
</clipPath>
</defs>
</svg>
