<svg width="58" height="58" viewBox="0 0 58 58" fill="none" xmlns="http://www.w3.org/2000/svg">
<path id="Vector" d="M28.81 57.39C13.01 57.37 0.52003 44.82 0.11003 29.55C-0.32997 13.06 13.06 -0.310007 29.49 0.0899929C44.6 0.459993 57.04 12.6 57.4 28.03C57.78 44.48 44.56 57.36 28.8 57.39H28.81ZM43.12 20.58C40.86 20.51 38.91 19.76 37.31 18.17C35.71 16.58 34.92 14.65 34.84 12.4H29.51C29.51 12.62 29.51 12.81 29.51 12.99C29.51 17.59 29.51 22.19 29.51 26.79C29.51 29.53 29.51 32.27 29.49 35C29.47 37.53 27.5 39.62 25 39.78C22.25 39.96 19.9 37.87 19.81 35.16C19.72 32.38 21.89 30.13 24.67 30.14C25.16 30.14 25.64 30.24 26.14 30.3C26.14 30.27 26.16 30.24 26.16 30.2C26.16 28.53 26.16 26.86 26.17 25.19C26.17 24.93 26.01 24.9 25.83 24.9C24.87 24.92 23.9 24.84 22.96 24.99C17.44 25.84 13.63 31.04 14.5 36.48C15.45 42.44 21.33 46.29 27.18 44.76C31.68 43.59 34.84 39.65 34.86 35.12C34.88 31.28 34.86 27.44 34.86 23.6C34.86 23.45 34.86 23.31 34.86 23.08C37.36 24.91 40.07 25.86 43.11 25.87V20.57L43.12 20.58Z" fill="url(#paint0_linear_1_8289)"/>
<defs>
<linearGradient id="paint0_linear_1_8289" x1="0.10003" y1="28.74" x2="57.42" y2="28.74" gradientUnits="userSpaceOnUse">
<stop stop-color="#8236AF"/>
<stop offset="1" stop-color="#361039"/>
</linearGradient>
</defs>
</svg>
