<svg width="29" height="39" viewBox="0 0 29 39" fill="none" xmlns="http://www.w3.org/2000/svg">
<g id="Layer_1" clipPath="url(#clip0_86_580)">
<path id="Vector" d="M17.7711 0.0950473C17.7711 2.64073 17.8739 5.10736 17.7408 7.56387C17.6158 9.88052 19.1001 11.4999 21.6673 11.4513C24.051 11.4067 26.4348 11.4412 28.9415 11.4412C28.9617 11.8486 28.996 12.2032 28.996 12.5559C28.998 20.2234 29 27.8908 28.996 35.5583C28.996 37.656 27.7214 38.9815 25.62 38.9876C18.2228 39.0059 10.8256 39.0018 3.43039 38.9876C1.27455 38.9856 0.00201669 37.6722 0 35.5116C0 24.804 0 14.0963 0.00201669 3.38862C0.00403338 1.4064 1.26043 0.0362696 3.22872 0.0200551C7.90139 -0.0184544 12.5761 0.00789419 17.2487 0.0119478C17.3778 0.0119478 17.5049 0.0504573 17.7711 0.0950473ZM14.3911 22.7285C17.5129 22.7285 20.6368 22.7326 23.7586 22.7285C25.0654 22.7285 25.7551 22.1792 25.7793 21.1496C25.8015 20.124 25.0917 19.4674 23.8272 19.4653C17.6158 19.4491 11.4044 19.4511 5.19298 19.4653C3.92649 19.4674 3.21057 20.1139 3.22267 21.1314C3.23477 22.1671 3.92448 22.7265 5.22524 22.7285C8.28053 22.7346 11.3358 22.7285 14.3911 22.7285ZM6.00974 30.9918H3.07747C3.0936 31.3506 3.1057 31.6262 3.1299 32.1491C5.39061 31.2188 7.3831 33.0166 9.56919 32.4126C9.66599 32.3863 9.8112 32.5079 9.92413 32.5788C10.9547 33.2112 11.9912 33.8334 13.0016 34.4962C13.1871 34.6178 13.3848 34.9076 13.3767 35.1124C13.3404 36.0913 13.8768 36.6122 14.7057 36.9C15.6354 37.2223 16.5227 37.0865 17.2205 36.3751C17.4746 36.1156 17.761 35.5522 17.646 35.3231C17.2145 34.4638 17.7549 34.1111 18.2692 33.6652C18.854 33.1585 19.3663 32.5646 19.9773 32.0944C21.6048 30.8419 22.7321 28.9589 25.0634 28.5759C26.2997 28.3732 26.4328 26.8247 25.4668 26.0261C24.652 25.3532 23.3291 25.337 22.4619 25.9897C21.6915 26.5693 21.629 27.1551 22.232 28.432C20.4149 30.1 18.5818 31.7803 16.7506 33.4605C16.7002 33.5051 16.6599 33.5659 16.6034 33.5983C16.4905 33.6632 16.3675 33.7706 16.2525 33.7645C15.0062 33.6956 13.6893 34.026 12.6325 32.9558C12.2191 32.5363 11.6262 32.2951 11.112 31.9809C10.7187 31.7397 10.4303 31.5776 10.4646 30.931C10.511 30.0291 9.79506 29.5021 8.92587 29.3319C7.5404 29.0603 6.77406 29.4981 6.00772 30.9898L6.00974 30.9918ZM8.81495 16.2123C10.1883 16.2123 11.5637 16.2224 12.9371 16.2082C13.8587 16.1981 14.3911 15.6326 14.4758 14.7874C14.5565 13.9909 14.1531 13.3525 13.3344 13.1113C12.9875 13.0099 12.6124 12.9633 12.2514 12.9613C10.0068 12.9491 7.76022 12.9511 5.51565 12.9613C5.18491 12.9613 4.84611 12.9957 4.52747 13.0728C3.61391 13.2977 3.13999 13.9483 3.22267 14.8178C3.2993 15.6346 3.96078 16.2022 4.89451 16.2123C6.20132 16.2265 7.50814 16.2163 8.81495 16.2123Z" fill="url(#paint0_linear_86_580)"/>
</g>
<defs>
<linearGradient id="paint0_linear_86_580" x1="14.4991" y1="-0.000610352" x2="14.4991" y2="38.9998" gradientUnits="userSpaceOnUse">
<stop stop-color="#8236AF"/>
<stop offset="1" stop-color="#361749"/>
</linearGradient>
<clipPath id="clip0_86_580">
<rect width="29" height="39" fill="white"/>
</clipPath>
</defs>
</svg>
